<mxfile host="Electron" modified="2024-02-28T21:09:24.762Z" agent="Mozilla/5.0 (X11; Linux x86_64) AppleWebKit/537.36 (KHTML, like Gecko) draw.io/23.1.5 Chrome/120.0.6099.109 Electron/28.1.0 Safari/537.36" etag="LBocNAfwV38jPpXTrUlv" version="23.1.5" type="device" pages="7">
  <diagram id="C5RBs43oDa-KdzZeNtuy" name="Page-1">
    <mxGraphModel dx="1222" dy="1297" grid="1" gridSize="10" guides="1" tooltips="1" connect="1" arrows="1" fold="1" page="1" pageScale="1" pageWidth="827" pageHeight="1169" math="0" shadow="0">
      <root>
        <mxCell id="WIyWlLk6GJQsqaUBKTNV-0" />
        <mxCell id="WIyWlLk6GJQsqaUBKTNV-1" parent="WIyWlLk6GJQsqaUBKTNV-0" />
        <mxCell id="legM80EOzJHsQfr5PC2d-2" style="edgeStyle=orthogonalEdgeStyle;rounded=0;orthogonalLoop=1;jettySize=auto;html=1;entryX=0.5;entryY=0;entryDx=0;entryDy=0;fontFamily=OpenDyslexic;" edge="1" parent="WIyWlLk6GJQsqaUBKTNV-1" source="legM80EOzJHsQfr5PC2d-0" target="legM80EOzJHsQfr5PC2d-1">
          <mxGeometry relative="1" as="geometry" />
        </mxCell>
        <mxCell id="legM80EOzJHsQfr5PC2d-0" value="Start" style="ellipse;whiteSpace=wrap;html=1;aspect=fixed;fontFamily=OpenDyslexic;" vertex="1" parent="WIyWlLk6GJQsqaUBKTNV-1">
          <mxGeometry x="270" y="130" width="80" height="80" as="geometry" />
        </mxCell>
        <mxCell id="legM80EOzJHsQfr5PC2d-12" style="edgeStyle=orthogonalEdgeStyle;rounded=0;orthogonalLoop=1;jettySize=auto;html=1;entryX=0;entryY=0.5;entryDx=0;entryDy=0;fontFamily=OpenDyslexic;" edge="1" parent="WIyWlLk6GJQsqaUBKTNV-1" source="legM80EOzJHsQfr5PC2d-1" target="legM80EOzJHsQfr5PC2d-11">
          <mxGeometry relative="1" as="geometry" />
        </mxCell>
        <mxCell id="legM80EOzJHsQfr5PC2d-1" value="Dear client, please press one of the following options:&lt;br&gt;&lt;ul&gt;&lt;li style=&quot;text-align: left;&quot;&gt;1 to get presale information&lt;/li&gt;&lt;li style=&quot;text-align: left;&quot;&gt;2 for order information&lt;/li&gt;&lt;li style=&quot;text-align: left;&quot;&gt;3 for event information&lt;/li&gt;&lt;li style=&quot;text-align: left;&quot;&gt;4 to speak to an operator&lt;/li&gt;&lt;li style=&quot;text-align: left;&quot;&gt;press 5 to listen to the menu once more&lt;/li&gt;&lt;/ul&gt;" style="shape=parallelogram;perimeter=parallelogramPerimeter;whiteSpace=wrap;html=1;fixedSize=1;fontFamily=OpenDyslexic;" vertex="1" parent="WIyWlLk6GJQsqaUBKTNV-1">
          <mxGeometry x="100" y="270" width="420" height="180" as="geometry" />
        </mxCell>
        <mxCell id="legM80EOzJHsQfr5PC2d-20" style="edgeStyle=orthogonalEdgeStyle;rounded=0;orthogonalLoop=1;jettySize=auto;html=1;entryX=0.5;entryY=1;entryDx=0;entryDy=0;fontFamily=OpenDyslexic;" edge="1" parent="WIyWlLk6GJQsqaUBKTNV-1" source="legM80EOzJHsQfr5PC2d-3" target="legM80EOzJHsQfr5PC2d-1">
          <mxGeometry relative="1" as="geometry">
            <Array as="points">
              <mxPoint x="310" y="570" />
            </Array>
          </mxGeometry>
        </mxCell>
        <mxCell id="legM80EOzJHsQfr5PC2d-3" value="Your option was invalid, &lt;br&gt;please try again" style="shape=parallelogram;perimeter=parallelogramPerimeter;whiteSpace=wrap;html=1;fixedSize=1;fontFamily=OpenDyslexic;" vertex="1" parent="WIyWlLk6GJQsqaUBKTNV-1">
          <mxGeometry x="400" y="540" width="224" height="60" as="geometry" />
        </mxCell>
        <mxCell id="legM80EOzJHsQfr5PC2d-38" style="edgeStyle=orthogonalEdgeStyle;rounded=0;orthogonalLoop=1;jettySize=auto;html=1;entryX=0;entryY=0.5;entryDx=0;entryDy=0;fontFamily=OpenDyslexic;" edge="1" parent="WIyWlLk6GJQsqaUBKTNV-1" source="legM80EOzJHsQfr5PC2d-4" target="legM80EOzJHsQfr5PC2d-23">
          <mxGeometry relative="1" as="geometry" />
        </mxCell>
        <mxCell id="legM80EOzJHsQfr5PC2d-4" value="2" style="rounded=0;whiteSpace=wrap;html=1;fontFamily=OpenDyslexic;" vertex="1" parent="WIyWlLk6GJQsqaUBKTNV-1">
          <mxGeometry x="700" y="230" width="53" height="50" as="geometry" />
        </mxCell>
        <mxCell id="legM80EOzJHsQfr5PC2d-40" style="edgeStyle=orthogonalEdgeStyle;rounded=0;orthogonalLoop=1;jettySize=auto;html=1;entryX=0;entryY=0.5;entryDx=0;entryDy=0;fontFamily=OpenDyslexic;" edge="1" parent="WIyWlLk6GJQsqaUBKTNV-1" source="legM80EOzJHsQfr5PC2d-5" target="legM80EOzJHsQfr5PC2d-39">
          <mxGeometry relative="1" as="geometry" />
        </mxCell>
        <mxCell id="legM80EOzJHsQfr5PC2d-5" value="3" style="rounded=0;whiteSpace=wrap;html=1;fontFamily=OpenDyslexic;" vertex="1" parent="WIyWlLk6GJQsqaUBKTNV-1">
          <mxGeometry x="700" y="300" width="53" height="50" as="geometry" />
        </mxCell>
        <mxCell id="legM80EOzJHsQfr5PC2d-44" style="edgeStyle=orthogonalEdgeStyle;rounded=0;orthogonalLoop=1;jettySize=auto;html=1;entryX=0;entryY=0.5;entryDx=0;entryDy=0;fontFamily=OpenDyslexic;" edge="1" parent="WIyWlLk6GJQsqaUBKTNV-1" source="legM80EOzJHsQfr5PC2d-6" target="legM80EOzJHsQfr5PC2d-43">
          <mxGeometry relative="1" as="geometry" />
        </mxCell>
        <mxCell id="legM80EOzJHsQfr5PC2d-6" value="4" style="rounded=0;whiteSpace=wrap;html=1;fontFamily=OpenDyslexic;" vertex="1" parent="WIyWlLk6GJQsqaUBKTNV-1">
          <mxGeometry x="700" y="370" width="53" height="50" as="geometry" />
        </mxCell>
        <mxCell id="legM80EOzJHsQfr5PC2d-21" style="edgeStyle=orthogonalEdgeStyle;rounded=0;orthogonalLoop=1;jettySize=auto;html=1;entryX=0.5;entryY=1;entryDx=0;entryDy=0;fontFamily=OpenDyslexic;" edge="1" parent="WIyWlLk6GJQsqaUBKTNV-1" source="legM80EOzJHsQfr5PC2d-7" target="legM80EOzJHsQfr5PC2d-1">
          <mxGeometry relative="1" as="geometry">
            <Array as="points">
              <mxPoint x="770" y="465" />
              <mxPoint x="770" y="620" />
              <mxPoint x="310" y="620" />
            </Array>
          </mxGeometry>
        </mxCell>
        <mxCell id="legM80EOzJHsQfr5PC2d-7" value="5" style="rounded=0;whiteSpace=wrap;html=1;fontFamily=OpenDyslexic;" vertex="1" parent="WIyWlLk6GJQsqaUBKTNV-1">
          <mxGeometry x="700" y="440" width="53" height="50" as="geometry" />
        </mxCell>
        <mxCell id="legM80EOzJHsQfr5PC2d-37" style="edgeStyle=orthogonalEdgeStyle;rounded=0;orthogonalLoop=1;jettySize=auto;html=1;entryX=0;entryY=0.5;entryDx=0;entryDy=0;fontFamily=OpenDyslexic;" edge="1" parent="WIyWlLk6GJQsqaUBKTNV-1" source="legM80EOzJHsQfr5PC2d-8" target="legM80EOzJHsQfr5PC2d-22">
          <mxGeometry relative="1" as="geometry" />
        </mxCell>
        <mxCell id="legM80EOzJHsQfr5PC2d-8" value="1" style="rounded=0;whiteSpace=wrap;html=1;fontFamily=OpenDyslexic;" vertex="1" parent="WIyWlLk6GJQsqaUBKTNV-1">
          <mxGeometry x="700" y="160" width="53" height="50" as="geometry" />
        </mxCell>
        <mxCell id="legM80EOzJHsQfr5PC2d-19" style="edgeStyle=orthogonalEdgeStyle;rounded=0;orthogonalLoop=1;jettySize=auto;html=1;entryX=1;entryY=0.5;entryDx=0;entryDy=0;fontFamily=OpenDyslexic;" edge="1" parent="WIyWlLk6GJQsqaUBKTNV-1" source="legM80EOzJHsQfr5PC2d-9" target="legM80EOzJHsQfr5PC2d-3">
          <mxGeometry relative="1" as="geometry">
            <Array as="points">
              <mxPoint x="720" y="570" />
            </Array>
          </mxGeometry>
        </mxCell>
        <mxCell id="legM80EOzJHsQfr5PC2d-9" value="other" style="rounded=0;whiteSpace=wrap;html=1;fontFamily=OpenDyslexic;" vertex="1" parent="WIyWlLk6GJQsqaUBKTNV-1">
          <mxGeometry x="700" y="510" width="53" height="50" as="geometry" />
        </mxCell>
        <mxCell id="legM80EOzJHsQfr5PC2d-13" style="edgeStyle=orthogonalEdgeStyle;rounded=0;orthogonalLoop=1;jettySize=auto;html=1;entryX=0;entryY=0.5;entryDx=0;entryDy=0;fontFamily=OpenDyslexic;" edge="1" parent="WIyWlLk6GJQsqaUBKTNV-1" source="legM80EOzJHsQfr5PC2d-11" target="legM80EOzJHsQfr5PC2d-8">
          <mxGeometry relative="1" as="geometry" />
        </mxCell>
        <mxCell id="legM80EOzJHsQfr5PC2d-14" style="edgeStyle=orthogonalEdgeStyle;rounded=0;orthogonalLoop=1;jettySize=auto;html=1;entryX=0;entryY=0.5;entryDx=0;entryDy=0;fontFamily=OpenDyslexic;" edge="1" parent="WIyWlLk6GJQsqaUBKTNV-1" source="legM80EOzJHsQfr5PC2d-11" target="legM80EOzJHsQfr5PC2d-4">
          <mxGeometry relative="1" as="geometry" />
        </mxCell>
        <mxCell id="legM80EOzJHsQfr5PC2d-15" style="edgeStyle=orthogonalEdgeStyle;rounded=0;orthogonalLoop=1;jettySize=auto;html=1;entryX=0;entryY=0.5;entryDx=0;entryDy=0;fontFamily=OpenDyslexic;" edge="1" parent="WIyWlLk6GJQsqaUBKTNV-1" source="legM80EOzJHsQfr5PC2d-11" target="legM80EOzJHsQfr5PC2d-5">
          <mxGeometry relative="1" as="geometry" />
        </mxCell>
        <mxCell id="legM80EOzJHsQfr5PC2d-16" style="edgeStyle=orthogonalEdgeStyle;rounded=0;orthogonalLoop=1;jettySize=auto;html=1;entryX=0;entryY=0.5;entryDx=0;entryDy=0;fontFamily=OpenDyslexic;" edge="1" parent="WIyWlLk6GJQsqaUBKTNV-1" source="legM80EOzJHsQfr5PC2d-11" target="legM80EOzJHsQfr5PC2d-6">
          <mxGeometry relative="1" as="geometry" />
        </mxCell>
        <mxCell id="legM80EOzJHsQfr5PC2d-17" style="edgeStyle=orthogonalEdgeStyle;rounded=0;orthogonalLoop=1;jettySize=auto;html=1;entryX=0;entryY=0.5;entryDx=0;entryDy=0;fontFamily=OpenDyslexic;" edge="1" parent="WIyWlLk6GJQsqaUBKTNV-1" source="legM80EOzJHsQfr5PC2d-11" target="legM80EOzJHsQfr5PC2d-7">
          <mxGeometry relative="1" as="geometry" />
        </mxCell>
        <mxCell id="legM80EOzJHsQfr5PC2d-18" style="edgeStyle=orthogonalEdgeStyle;rounded=0;orthogonalLoop=1;jettySize=auto;html=1;entryX=0;entryY=0.5;entryDx=0;entryDy=0;fontFamily=OpenDyslexic;" edge="1" parent="WIyWlLk6GJQsqaUBKTNV-1" source="legM80EOzJHsQfr5PC2d-11" target="legM80EOzJHsQfr5PC2d-9">
          <mxGeometry relative="1" as="geometry" />
        </mxCell>
        <mxCell id="legM80EOzJHsQfr5PC2d-11" value="User pressed" style="rhombus;whiteSpace=wrap;html=1;fontFamily=OpenDyslexic;" vertex="1" parent="WIyWlLk6GJQsqaUBKTNV-1">
          <mxGeometry x="550" y="310" width="110" height="100" as="geometry" />
        </mxCell>
        <mxCell id="legM80EOzJHsQfr5PC2d-36" style="edgeStyle=orthogonalEdgeStyle;rounded=0;orthogonalLoop=1;jettySize=auto;html=1;entryX=0;entryY=0.5;entryDx=0;entryDy=0;fontFamily=OpenDyslexic;" edge="1" parent="WIyWlLk6GJQsqaUBKTNV-1" source="legM80EOzJHsQfr5PC2d-22" target="legM80EOzJHsQfr5PC2d-27">
          <mxGeometry relative="1" as="geometry">
            <Array as="points">
              <mxPoint x="1230" y="185" />
              <mxPoint x="1230" y="325" />
            </Array>
          </mxGeometry>
        </mxCell>
        <mxCell id="legM80EOzJHsQfr5PC2d-22" value="Display presale information" style="shape=parallelogram;perimeter=parallelogramPerimeter;whiteSpace=wrap;html=1;fixedSize=1;fontFamily=OpenDyslexic;" vertex="1" parent="WIyWlLk6GJQsqaUBKTNV-1">
          <mxGeometry x="800" y="155" width="120" height="60" as="geometry" />
        </mxCell>
        <mxCell id="legM80EOzJHsQfr5PC2d-25" style="edgeStyle=orthogonalEdgeStyle;rounded=0;orthogonalLoop=1;jettySize=auto;html=1;fontFamily=OpenDyslexic;" edge="1" parent="WIyWlLk6GJQsqaUBKTNV-1" source="legM80EOzJHsQfr5PC2d-23" target="legM80EOzJHsQfr5PC2d-24">
          <mxGeometry relative="1" as="geometry" />
        </mxCell>
        <mxCell id="legM80EOzJHsQfr5PC2d-23" value="What is your &lt;br&gt;sale number?" style="shape=parallelogram;perimeter=parallelogramPerimeter;whiteSpace=wrap;html=1;fixedSize=1;fontFamily=OpenDyslexic;" vertex="1" parent="WIyWlLk6GJQsqaUBKTNV-1">
          <mxGeometry x="785" y="225" width="140" height="60" as="geometry" />
        </mxCell>
        <mxCell id="legM80EOzJHsQfr5PC2d-28" style="edgeStyle=orthogonalEdgeStyle;rounded=0;orthogonalLoop=1;jettySize=auto;html=1;entryX=0;entryY=0.5;entryDx=0;entryDy=0;fontFamily=OpenDyslexic;" edge="1" parent="WIyWlLk6GJQsqaUBKTNV-1" source="legM80EOzJHsQfr5PC2d-24" target="legM80EOzJHsQfr5PC2d-26">
          <mxGeometry relative="1" as="geometry" />
        </mxCell>
        <mxCell id="legM80EOzJHsQfr5PC2d-33" value="Yes" style="edgeLabel;html=1;align=center;verticalAlign=middle;resizable=0;points=[];fontFamily=OpenDyslexic;" vertex="1" connectable="0" parent="legM80EOzJHsQfr5PC2d-28">
          <mxGeometry x="-0.313" y="2" relative="1" as="geometry">
            <mxPoint as="offset" />
          </mxGeometry>
        </mxCell>
        <mxCell id="legM80EOzJHsQfr5PC2d-32" style="edgeStyle=orthogonalEdgeStyle;rounded=0;orthogonalLoop=1;jettySize=auto;html=1;entryX=0.5;entryY=1;entryDx=0;entryDy=0;fontFamily=OpenDyslexic;exitX=1;exitY=0;exitDx=0;exitDy=0;" edge="1" parent="WIyWlLk6GJQsqaUBKTNV-1" source="legM80EOzJHsQfr5PC2d-24" target="legM80EOzJHsQfr5PC2d-31">
          <mxGeometry relative="1" as="geometry">
            <Array as="points">
              <mxPoint x="1055" y="235" />
            </Array>
          </mxGeometry>
        </mxCell>
        <mxCell id="legM80EOzJHsQfr5PC2d-34" value="No" style="edgeLabel;html=1;align=center;verticalAlign=middle;resizable=0;points=[];fontFamily=OpenDyslexic;" vertex="1" connectable="0" parent="legM80EOzJHsQfr5PC2d-32">
          <mxGeometry x="-0.0682" relative="1" as="geometry">
            <mxPoint as="offset" />
          </mxGeometry>
        </mxCell>
        <mxCell id="legM80EOzJHsQfr5PC2d-24" value="Is the &lt;br&gt;number &lt;br&gt;valid?" style="rhombus;whiteSpace=wrap;html=1;fontFamily=OpenDyslexic;" vertex="1" parent="WIyWlLk6GJQsqaUBKTNV-1">
          <mxGeometry x="945" y="215" width="110" height="80" as="geometry" />
        </mxCell>
        <mxCell id="legM80EOzJHsQfr5PC2d-29" style="edgeStyle=orthogonalEdgeStyle;rounded=0;orthogonalLoop=1;jettySize=auto;html=1;entryX=0;entryY=0.5;entryDx=0;entryDy=0;fontFamily=OpenDyslexic;" edge="1" parent="WIyWlLk6GJQsqaUBKTNV-1" source="legM80EOzJHsQfr5PC2d-26" target="legM80EOzJHsQfr5PC2d-27">
          <mxGeometry relative="1" as="geometry">
            <Array as="points">
              <mxPoint x="1230" y="255" />
              <mxPoint x="1230" y="325" />
            </Array>
          </mxGeometry>
        </mxCell>
        <mxCell id="legM80EOzJHsQfr5PC2d-26" value="Display order information" style="shape=parallelogram;perimeter=parallelogramPerimeter;whiteSpace=wrap;html=1;fixedSize=1;fontFamily=OpenDyslexic;" vertex="1" parent="WIyWlLk6GJQsqaUBKTNV-1">
          <mxGeometry x="1096" y="225" width="120" height="60" as="geometry" />
        </mxCell>
        <mxCell id="legM80EOzJHsQfr5PC2d-27" value="End" style="ellipse;whiteSpace=wrap;html=1;aspect=fixed;fontFamily=OpenDyslexic;" vertex="1" parent="WIyWlLk6GJQsqaUBKTNV-1">
          <mxGeometry x="1260" y="285" width="80" height="80" as="geometry" />
        </mxCell>
        <mxCell id="legM80EOzJHsQfr5PC2d-35" style="edgeStyle=orthogonalEdgeStyle;rounded=0;orthogonalLoop=1;jettySize=auto;html=1;entryX=0;entryY=0;entryDx=0;entryDy=0;fontFamily=OpenDyslexic;" edge="1" parent="WIyWlLk6GJQsqaUBKTNV-1" source="legM80EOzJHsQfr5PC2d-31" target="legM80EOzJHsQfr5PC2d-24">
          <mxGeometry relative="1" as="geometry">
            <Array as="points">
              <mxPoint x="973" y="90" />
              <mxPoint x="973" y="167" />
            </Array>
          </mxGeometry>
        </mxCell>
        <mxCell id="legM80EOzJHsQfr5PC2d-31" value="Ask for the number &lt;br&gt;again with a warning" style="shape=parallelogram;perimeter=parallelogramPerimeter;whiteSpace=wrap;html=1;fixedSize=1;fontFamily=OpenDyslexic;" vertex="1" parent="WIyWlLk6GJQsqaUBKTNV-1">
          <mxGeometry x="975" y="60" width="160" height="60" as="geometry" />
        </mxCell>
        <mxCell id="legM80EOzJHsQfr5PC2d-41" style="edgeStyle=orthogonalEdgeStyle;rounded=0;orthogonalLoop=1;jettySize=auto;html=1;entryX=0;entryY=0.5;entryDx=0;entryDy=0;fontFamily=OpenDyslexic;" edge="1" parent="WIyWlLk6GJQsqaUBKTNV-1" source="legM80EOzJHsQfr5PC2d-39" target="legM80EOzJHsQfr5PC2d-27">
          <mxGeometry relative="1" as="geometry" />
        </mxCell>
        <mxCell id="legM80EOzJHsQfr5PC2d-39" value="Display event information" style="shape=parallelogram;perimeter=parallelogramPerimeter;whiteSpace=wrap;html=1;fixedSize=1;fontFamily=OpenDyslexic;" vertex="1" parent="WIyWlLk6GJQsqaUBKTNV-1">
          <mxGeometry x="800" y="295" width="120" height="60" as="geometry" />
        </mxCell>
        <mxCell id="legM80EOzJHsQfr5PC2d-45" style="edgeStyle=orthogonalEdgeStyle;rounded=0;orthogonalLoop=1;jettySize=auto;html=1;entryX=0;entryY=0.5;entryDx=0;entryDy=0;fontFamily=OpenDyslexic;" edge="1" parent="WIyWlLk6GJQsqaUBKTNV-1" source="legM80EOzJHsQfr5PC2d-43" target="legM80EOzJHsQfr5PC2d-27">
          <mxGeometry relative="1" as="geometry">
            <Array as="points">
              <mxPoint x="1230" y="395" />
              <mxPoint x="1230" y="325" />
            </Array>
          </mxGeometry>
        </mxCell>
        <mxCell id="legM80EOzJHsQfr5PC2d-43" value="Transfer call to an agent&amp;nbsp;" style="rounded=0;whiteSpace=wrap;html=1;fontFamily=OpenDyslexic;" vertex="1" parent="WIyWlLk6GJQsqaUBKTNV-1">
          <mxGeometry x="800" y="365" width="120" height="60" as="geometry" />
        </mxCell>
        <mxCell id="legM80EOzJHsQfr5PC2d-46" value="1" style="ellipse;whiteSpace=wrap;html=1;aspect=fixed;fontFamily=OpenDyslexic;fillColor=#a20025;fontColor=#ffffff;strokeColor=#6F0000;" vertex="1" parent="WIyWlLk6GJQsqaUBKTNV-1">
          <mxGeometry x="330" y="130" width="30" height="30" as="geometry" />
        </mxCell>
        <mxCell id="legM80EOzJHsQfr5PC2d-47" value="2" style="ellipse;whiteSpace=wrap;html=1;aspect=fixed;fontFamily=OpenDyslexic;fillColor=#a20025;fontColor=#ffffff;strokeColor=#6F0000;" vertex="1" parent="WIyWlLk6GJQsqaUBKTNV-1">
          <mxGeometry x="490" y="255" width="30" height="30" as="geometry" />
        </mxCell>
        <mxCell id="legM80EOzJHsQfr5PC2d-48" value="3" style="ellipse;whiteSpace=wrap;html=1;aspect=fixed;fontFamily=OpenDyslexic;fillColor=#a20025;fontColor=#ffffff;strokeColor=#6F0000;" vertex="1" parent="WIyWlLk6GJQsqaUBKTNV-1">
          <mxGeometry x="740" y="140" width="30" height="30" as="geometry" />
        </mxCell>
        <mxCell id="legM80EOzJHsQfr5PC2d-49" value="4" style="ellipse;whiteSpace=wrap;html=1;aspect=fixed;fontFamily=OpenDyslexic;fillColor=#a20025;fontColor=#ffffff;strokeColor=#6F0000;" vertex="1" parent="WIyWlLk6GJQsqaUBKTNV-1">
          <mxGeometry x="740" y="215" width="30" height="30" as="geometry" />
        </mxCell>
        <mxCell id="legM80EOzJHsQfr5PC2d-50" value="5" style="ellipse;whiteSpace=wrap;html=1;aspect=fixed;fontFamily=OpenDyslexic;fillColor=#a20025;fontColor=#ffffff;strokeColor=#6F0000;" vertex="1" parent="WIyWlLk6GJQsqaUBKTNV-1">
          <mxGeometry x="740" y="285" width="30" height="30" as="geometry" />
        </mxCell>
        <mxCell id="legM80EOzJHsQfr5PC2d-51" value="6" style="ellipse;whiteSpace=wrap;html=1;aspect=fixed;fontFamily=OpenDyslexic;fillColor=#a20025;fontColor=#ffffff;strokeColor=#6F0000;" vertex="1" parent="WIyWlLk6GJQsqaUBKTNV-1">
          <mxGeometry x="740" y="355" width="30" height="30" as="geometry" />
        </mxCell>
        <mxCell id="legM80EOzJHsQfr5PC2d-52" value="7" style="ellipse;whiteSpace=wrap;html=1;aspect=fixed;fontFamily=OpenDyslexic;fillColor=#a20025;fontColor=#ffffff;strokeColor=#6F0000;" vertex="1" parent="WIyWlLk6GJQsqaUBKTNV-1">
          <mxGeometry x="740" y="430" width="30" height="30" as="geometry" />
        </mxCell>
        <mxCell id="legM80EOzJHsQfr5PC2d-53" value="8" style="ellipse;whiteSpace=wrap;html=1;aspect=fixed;fontFamily=OpenDyslexic;fillColor=#a20025;fontColor=#ffffff;strokeColor=#6F0000;" vertex="1" parent="WIyWlLk6GJQsqaUBKTNV-1">
          <mxGeometry x="740" y="500" width="30" height="30" as="geometry" />
        </mxCell>
        <mxCell id="legM80EOzJHsQfr5PC2d-54" value="9" style="ellipse;whiteSpace=wrap;html=1;aspect=fixed;fontFamily=OpenDyslexic;fillColor=#a20025;fontColor=#ffffff;strokeColor=#6F0000;" vertex="1" parent="WIyWlLk6GJQsqaUBKTNV-1">
          <mxGeometry x="900" y="140" width="30" height="30" as="geometry" />
        </mxCell>
        <mxCell id="legM80EOzJHsQfr5PC2d-55" value="10" style="ellipse;whiteSpace=wrap;html=1;aspect=fixed;fontFamily=OpenDyslexic;fillColor=#a20025;fontColor=#ffffff;strokeColor=#6F0000;" vertex="1" parent="WIyWlLk6GJQsqaUBKTNV-1">
          <mxGeometry x="902" y="210" width="30" height="30" as="geometry" />
        </mxCell>
        <mxCell id="legM80EOzJHsQfr5PC2d-56" value="11" style="ellipse;whiteSpace=wrap;html=1;aspect=fixed;fontFamily=OpenDyslexic;fillColor=#a20025;fontColor=#ffffff;strokeColor=#6F0000;" vertex="1" parent="WIyWlLk6GJQsqaUBKTNV-1">
          <mxGeometry x="900" y="280" width="30" height="30" as="geometry" />
        </mxCell>
        <mxCell id="legM80EOzJHsQfr5PC2d-57" value="12" style="ellipse;whiteSpace=wrap;html=1;aspect=fixed;fontFamily=OpenDyslexic;fillColor=#a20025;fontColor=#ffffff;strokeColor=#6F0000;" vertex="1" parent="WIyWlLk6GJQsqaUBKTNV-1">
          <mxGeometry x="910" y="355" width="30" height="30" as="geometry" />
        </mxCell>
        <mxCell id="legM80EOzJHsQfr5PC2d-58" value="13" style="ellipse;whiteSpace=wrap;html=1;aspect=fixed;fontFamily=OpenDyslexic;fillColor=#a20025;fontColor=#ffffff;strokeColor=#6F0000;" vertex="1" parent="WIyWlLk6GJQsqaUBKTNV-1">
          <mxGeometry x="600" y="530" width="30" height="30" as="geometry" />
        </mxCell>
        <mxCell id="legM80EOzJHsQfr5PC2d-59" value="14" style="ellipse;whiteSpace=wrap;html=1;aspect=fixed;fontFamily=OpenDyslexic;fillColor=#a20025;fontColor=#ffffff;strokeColor=#6F0000;" vertex="1" parent="WIyWlLk6GJQsqaUBKTNV-1">
          <mxGeometry x="940" y="265" width="30" height="30" as="geometry" />
        </mxCell>
        <mxCell id="legM80EOzJHsQfr5PC2d-60" value="16" style="ellipse;whiteSpace=wrap;html=1;aspect=fixed;fontFamily=OpenDyslexic;fillColor=#a20025;fontColor=#ffffff;strokeColor=#6F0000;" vertex="1" parent="WIyWlLk6GJQsqaUBKTNV-1">
          <mxGeometry x="1120" y="50" width="30" height="30" as="geometry" />
        </mxCell>
        <mxCell id="legM80EOzJHsQfr5PC2d-61" value="17" style="ellipse;whiteSpace=wrap;html=1;aspect=fixed;fontFamily=OpenDyslexic;fillColor=#a20025;fontColor=#ffffff;strokeColor=#6F0000;" vertex="1" parent="WIyWlLk6GJQsqaUBKTNV-1">
          <mxGeometry x="1190" y="210" width="30" height="30" as="geometry" />
        </mxCell>
        <mxCell id="legM80EOzJHsQfr5PC2d-62" value="15" style="ellipse;whiteSpace=wrap;html=1;aspect=fixed;fontFamily=OpenDyslexic;fillColor=#a20025;fontColor=#ffffff;strokeColor=#6F0000;" vertex="1" parent="WIyWlLk6GJQsqaUBKTNV-1">
          <mxGeometry x="990" y="195" width="30" height="30" as="geometry" />
        </mxCell>
        <mxCell id="legM80EOzJHsQfr5PC2d-63" value="18" style="ellipse;whiteSpace=wrap;html=1;aspect=fixed;fontFamily=OpenDyslexic;fillColor=#a20025;fontColor=#ffffff;strokeColor=#6F0000;" vertex="1" parent="WIyWlLk6GJQsqaUBKTNV-1">
          <mxGeometry x="1310" y="270" width="30" height="30" as="geometry" />
        </mxCell>
      </root>
    </mxGraphModel>
  </diagram>
  <diagram id="Lqj4yopql2OBs_ZQahsf" name="Page-2">
    <mxGraphModel dx="794" dy="843" grid="1" gridSize="10" guides="1" tooltips="1" connect="1" arrows="1" fold="1" page="1" pageScale="1" pageWidth="850" pageHeight="1100" math="0" shadow="0">
      <root>
        <mxCell id="0" />
        <mxCell id="1" parent="0" />
        <mxCell id="llMtEztp4MRwtR8iqv93-8" style="edgeStyle=orthogonalEdgeStyle;rounded=0;orthogonalLoop=1;jettySize=auto;html=1;entryX=0;entryY=0.5;entryDx=0;entryDy=0;fontFamily=OpenDyslexic;" edge="1" parent="1" source="llMtEztp4MRwtR8iqv93-1" target="llMtEztp4MRwtR8iqv93-7">
          <mxGeometry relative="1" as="geometry" />
        </mxCell>
        <mxCell id="llMtEztp4MRwtR8iqv93-1" value="Start" style="ellipse;whiteSpace=wrap;html=1;aspect=fixed;fontFamily=OpenDyslexic;" vertex="1" parent="1">
          <mxGeometry x="20" y="140" width="80" height="80" as="geometry" />
        </mxCell>
        <mxCell id="llMtEztp4MRwtR8iqv93-10" style="edgeStyle=orthogonalEdgeStyle;rounded=0;orthogonalLoop=1;jettySize=auto;html=1;entryX=0;entryY=0.5;entryDx=0;entryDy=0;fontFamily=OpenDyslexic;" edge="1" parent="1" source="llMtEztp4MRwtR8iqv93-5" target="llMtEztp4MRwtR8iqv93-6">
          <mxGeometry relative="1" as="geometry" />
        </mxCell>
        <mxCell id="llMtEztp4MRwtR8iqv93-5" value="A db query is made mirroring the data that Amazon Connect uses for analytics." style="shape=datastore;whiteSpace=wrap;html=1;fontFamily=OpenDyslexic;" vertex="1" parent="1">
          <mxGeometry x="250" y="115" width="140" height="130" as="geometry" />
        </mxCell>
        <mxCell id="llMtEztp4MRwtR8iqv93-14" style="edgeStyle=orthogonalEdgeStyle;rounded=0;orthogonalLoop=1;jettySize=auto;html=1;fontFamily=OpenDyslexic;" edge="1" parent="1" source="llMtEztp4MRwtR8iqv93-6" target="llMtEztp4MRwtR8iqv93-11">
          <mxGeometry relative="1" as="geometry" />
        </mxCell>
        <mxCell id="llMtEztp4MRwtR8iqv93-27" value="No" style="edgeLabel;html=1;align=center;verticalAlign=middle;resizable=0;points=[];fontFamily=OpenDyslexic;" vertex="1" connectable="0" parent="llMtEztp4MRwtR8iqv93-14">
          <mxGeometry x="0.0032" relative="1" as="geometry">
            <mxPoint as="offset" />
          </mxGeometry>
        </mxCell>
        <mxCell id="llMtEztp4MRwtR8iqv93-21" style="edgeStyle=orthogonalEdgeStyle;rounded=0;orthogonalLoop=1;jettySize=auto;html=1;entryX=0;entryY=0.5;entryDx=0;entryDy=0;fontFamily=OpenDyslexic;" edge="1" parent="1" source="llMtEztp4MRwtR8iqv93-6" target="llMtEztp4MRwtR8iqv93-20">
          <mxGeometry relative="1" as="geometry" />
        </mxCell>
        <mxCell id="llMtEztp4MRwtR8iqv93-26" value="Yes" style="edgeLabel;html=1;align=center;verticalAlign=middle;resizable=0;points=[];fontFamily=OpenDyslexic;" vertex="1" connectable="0" parent="llMtEztp4MRwtR8iqv93-21">
          <mxGeometry x="-0.2643" y="-1" relative="1" as="geometry">
            <mxPoint as="offset" />
          </mxGeometry>
        </mxCell>
        <mxCell id="llMtEztp4MRwtR8iqv93-6" value="The DB &lt;br&gt;contains &lt;br&gt;the requested &lt;br&gt;data" style="rhombus;whiteSpace=wrap;html=1;fontFamily=OpenDyslexic;" vertex="1" parent="1">
          <mxGeometry x="430" y="130" width="130" height="100" as="geometry" />
        </mxCell>
        <mxCell id="llMtEztp4MRwtR8iqv93-9" style="edgeStyle=orthogonalEdgeStyle;rounded=0;orthogonalLoop=1;jettySize=auto;html=1;entryX=0;entryY=0.5;entryDx=0;entryDy=0;fontFamily=OpenDyslexic;" edge="1" parent="1" source="llMtEztp4MRwtR8iqv93-7" target="llMtEztp4MRwtR8iqv93-5">
          <mxGeometry relative="1" as="geometry" />
        </mxCell>
        <mxCell id="llMtEztp4MRwtR8iqv93-7" value="n = 0" style="rounded=0;whiteSpace=wrap;html=1;fontFamily=OpenDyslexic;" vertex="1" parent="1">
          <mxGeometry x="140" y="160" width="60" height="40" as="geometry" />
        </mxCell>
        <mxCell id="llMtEztp4MRwtR8iqv93-15" style="edgeStyle=orthogonalEdgeStyle;rounded=0;orthogonalLoop=1;jettySize=auto;html=1;fontFamily=OpenDyslexic;" edge="1" parent="1" source="llMtEztp4MRwtR8iqv93-11" target="llMtEztp4MRwtR8iqv93-12">
          <mxGeometry relative="1" as="geometry" />
        </mxCell>
        <mxCell id="llMtEztp4MRwtR8iqv93-11" value="n++" style="rounded=0;whiteSpace=wrap;html=1;fontFamily=OpenDyslexic;" vertex="1" parent="1">
          <mxGeometry x="460" y="320" width="70" height="40" as="geometry" />
        </mxCell>
        <mxCell id="llMtEztp4MRwtR8iqv93-22" style="edgeStyle=orthogonalEdgeStyle;rounded=0;orthogonalLoop=1;jettySize=auto;html=1;entryX=1;entryY=0.5;entryDx=0;entryDy=0;fontFamily=OpenDyslexic;" edge="1" parent="1" source="llMtEztp4MRwtR8iqv93-12" target="llMtEztp4MRwtR8iqv93-18">
          <mxGeometry relative="1" as="geometry" />
        </mxCell>
        <mxCell id="llMtEztp4MRwtR8iqv93-29" value="Yes" style="edgeLabel;html=1;align=center;verticalAlign=middle;resizable=0;points=[];fontFamily=OpenDyslexic;" vertex="1" connectable="0" parent="llMtEztp4MRwtR8iqv93-22">
          <mxGeometry x="0.2952" y="-1" relative="1" as="geometry">
            <mxPoint as="offset" />
          </mxGeometry>
        </mxCell>
        <mxCell id="llMtEztp4MRwtR8iqv93-12" value="n &amp;gt; 3" style="rhombus;whiteSpace=wrap;html=1;fontFamily=OpenDyslexic;" vertex="1" parent="1">
          <mxGeometry x="270" y="300" width="80" height="80" as="geometry" />
        </mxCell>
        <mxCell id="llMtEztp4MRwtR8iqv93-16" style="edgeStyle=orthogonalEdgeStyle;rounded=0;orthogonalLoop=1;jettySize=auto;html=1;entryX=0.429;entryY=1.038;entryDx=0;entryDy=0;entryPerimeter=0;fontFamily=OpenDyslexic;" edge="1" parent="1" source="llMtEztp4MRwtR8iqv93-12" target="llMtEztp4MRwtR8iqv93-5">
          <mxGeometry relative="1" as="geometry" />
        </mxCell>
        <mxCell id="llMtEztp4MRwtR8iqv93-28" value="No" style="edgeLabel;html=1;align=center;verticalAlign=middle;resizable=0;points=[];fontFamily=OpenDyslexic;" vertex="1" connectable="0" parent="llMtEztp4MRwtR8iqv93-16">
          <mxGeometry x="0.1161" y="1" relative="1" as="geometry">
            <mxPoint as="offset" />
          </mxGeometry>
        </mxCell>
        <mxCell id="llMtEztp4MRwtR8iqv93-23" style="edgeStyle=orthogonalEdgeStyle;rounded=0;orthogonalLoop=1;jettySize=auto;html=1;fontFamily=OpenDyslexic;" edge="1" parent="1" source="llMtEztp4MRwtR8iqv93-18" target="llMtEztp4MRwtR8iqv93-19">
          <mxGeometry relative="1" as="geometry" />
        </mxCell>
        <mxCell id="llMtEztp4MRwtR8iqv93-18" value="Output an &lt;br&gt;error" style="shape=parallelogram;perimeter=parallelogramPerimeter;whiteSpace=wrap;html=1;fixedSize=1;fontFamily=OpenDyslexic;" vertex="1" parent="1">
          <mxGeometry x="120" y="310" width="120" height="60" as="geometry" />
        </mxCell>
        <mxCell id="llMtEztp4MRwtR8iqv93-19" value="End" style="ellipse;whiteSpace=wrap;html=1;aspect=fixed;fontFamily=OpenDyslexic;" vertex="1" parent="1">
          <mxGeometry x="20" y="300" width="80" height="80" as="geometry" />
        </mxCell>
        <mxCell id="llMtEztp4MRwtR8iqv93-25" style="edgeStyle=orthogonalEdgeStyle;rounded=0;orthogonalLoop=1;jettySize=auto;html=1;entryX=0.5;entryY=0;entryDx=0;entryDy=0;fontFamily=OpenDyslexic;" edge="1" parent="1" source="llMtEztp4MRwtR8iqv93-20" target="llMtEztp4MRwtR8iqv93-24">
          <mxGeometry relative="1" as="geometry" />
        </mxCell>
        <mxCell id="llMtEztp4MRwtR8iqv93-20" value="The data gets manually validated through graphs" style="rounded=0;whiteSpace=wrap;html=1;fontFamily=OpenDyslexic;" vertex="1" parent="1">
          <mxGeometry x="640" y="150" width="120" height="60" as="geometry" />
        </mxCell>
        <mxCell id="llMtEztp4MRwtR8iqv93-24" value="End" style="ellipse;whiteSpace=wrap;html=1;aspect=fixed;fontFamily=OpenDyslexic;" vertex="1" parent="1">
          <mxGeometry x="660" y="300" width="80" height="80" as="geometry" />
        </mxCell>
        <mxCell id="Jy5g_TWLX6s8CC2PpE8z-1" value="1" style="ellipse;whiteSpace=wrap;html=1;aspect=fixed;fontFamily=OpenDyslexic;fillColor=#a20025;fontColor=#ffffff;strokeColor=#6F0000;" vertex="1" parent="1">
          <mxGeometry x="180" y="140" width="30" height="30" as="geometry" />
        </mxCell>
        <mxCell id="Jy5g_TWLX6s8CC2PpE8z-2" value="2" style="ellipse;whiteSpace=wrap;html=1;aspect=fixed;fontFamily=OpenDyslexic;fillColor=#a20025;fontColor=#ffffff;strokeColor=#6F0000;" vertex="1" parent="1">
          <mxGeometry x="370" y="110" width="30" height="30" as="geometry" />
        </mxCell>
        <mxCell id="Jy5g_TWLX6s8CC2PpE8z-3" value="3" style="ellipse;whiteSpace=wrap;html=1;aspect=fixed;fontFamily=OpenDyslexic;fillColor=#a20025;fontColor=#ffffff;strokeColor=#6F0000;" vertex="1" parent="1">
          <mxGeometry x="490" y="110" width="30" height="30" as="geometry" />
        </mxCell>
        <mxCell id="Jy5g_TWLX6s8CC2PpE8z-4" value="4" style="ellipse;whiteSpace=wrap;html=1;aspect=fixed;fontFamily=OpenDyslexic;fillColor=#a20025;fontColor=#ffffff;strokeColor=#6F0000;" vertex="1" parent="1">
          <mxGeometry x="520" y="300" width="30" height="30" as="geometry" />
        </mxCell>
        <mxCell id="Jy5g_TWLX6s8CC2PpE8z-5" value="5" style="ellipse;whiteSpace=wrap;html=1;aspect=fixed;fontFamily=OpenDyslexic;fillColor=#a20025;fontColor=#ffffff;strokeColor=#6F0000;" vertex="1" parent="1">
          <mxGeometry x="320" y="300" width="30" height="30" as="geometry" />
        </mxCell>
        <mxCell id="Jy5g_TWLX6s8CC2PpE8z-6" value="6" style="ellipse;whiteSpace=wrap;html=1;aspect=fixed;fontFamily=OpenDyslexic;fillColor=#a20025;fontColor=#ffffff;strokeColor=#6F0000;" vertex="1" parent="1">
          <mxGeometry x="220" y="290" width="30" height="30" as="geometry" />
        </mxCell>
        <mxCell id="Jy5g_TWLX6s8CC2PpE8z-7" value="7" style="ellipse;whiteSpace=wrap;html=1;aspect=fixed;fontFamily=OpenDyslexic;fillColor=#a20025;fontColor=#ffffff;strokeColor=#6F0000;" vertex="1" parent="1">
          <mxGeometry x="750" y="130" width="30" height="30" as="geometry" />
        </mxCell>
        <mxCell id="Jy5g_TWLX6s8CC2PpE8z-8" value="8" style="ellipse;whiteSpace=wrap;html=1;aspect=fixed;fontFamily=OpenDyslexic;fillColor=#a20025;fontColor=#ffffff;strokeColor=#6F0000;" vertex="1" parent="1">
          <mxGeometry x="720" y="290" width="30" height="30" as="geometry" />
        </mxCell>
        <mxCell id="Jy5g_TWLX6s8CC2PpE8z-9" value="8" style="ellipse;whiteSpace=wrap;html=1;aspect=fixed;fontFamily=OpenDyslexic;fillColor=#a20025;fontColor=#ffffff;strokeColor=#6F0000;" vertex="1" parent="1">
          <mxGeometry x="70" y="290" width="30" height="30" as="geometry" />
        </mxCell>
        <mxCell id="SbnxqagXt-i7B97l_-Ym-1" value="0" style="ellipse;whiteSpace=wrap;html=1;aspect=fixed;fontFamily=OpenDyslexic;fillColor=#a20025;fontColor=#ffffff;strokeColor=#6F0000;" vertex="1" parent="1">
          <mxGeometry x="70" y="130" width="30" height="30" as="geometry" />
        </mxCell>
      </root>
    </mxGraphModel>
  </diagram>
  <diagram id="ZsaubRWfysNW5bQCvay3" name="Page-3">
    <mxGraphModel dx="548" dy="581" grid="1" gridSize="10" guides="1" tooltips="1" connect="1" arrows="1" fold="1" page="1" pageScale="1" pageWidth="850" pageHeight="1100" math="0" shadow="0">
      <root>
        <mxCell id="0" />
        <mxCell id="1" parent="0" />
        <mxCell id="90G_gIfu7eqB6Fm5K78N-9" style="edgeStyle=orthogonalEdgeStyle;rounded=0;orthogonalLoop=1;jettySize=auto;html=1;entryX=0;entryY=0.5;entryDx=0;entryDy=0;" edge="1" parent="1" source="90G_gIfu7eqB6Fm5K78N-1" target="90G_gIfu7eqB6Fm5K78N-3">
          <mxGeometry relative="1" as="geometry" />
        </mxCell>
        <mxCell id="90G_gIfu7eqB6Fm5K78N-1" value="Start" style="ellipse;whiteSpace=wrap;html=1;aspect=fixed;fontFamily=OpenDyslexic;" vertex="1" parent="1">
          <mxGeometry x="80" y="180" width="80" height="80" as="geometry" />
        </mxCell>
        <mxCell id="90G_gIfu7eqB6Fm5K78N-2" value="1" style="ellipse;whiteSpace=wrap;html=1;aspect=fixed;fontFamily=OpenDyslexic;fillColor=#a20025;fontColor=#ffffff;strokeColor=#6F0000;" vertex="1" parent="1">
          <mxGeometry x="140" y="180" width="30" height="30" as="geometry" />
        </mxCell>
        <mxCell id="90G_gIfu7eqB6Fm5K78N-10" style="edgeStyle=orthogonalEdgeStyle;rounded=0;orthogonalLoop=1;jettySize=auto;html=1;entryX=0;entryY=0.5;entryDx=0;entryDy=0;fontFamily=OpenDyslexic;" edge="1" parent="1" source="90G_gIfu7eqB6Fm5K78N-3" target="90G_gIfu7eqB6Fm5K78N-4">
          <mxGeometry relative="1" as="geometry" />
        </mxCell>
        <mxCell id="90G_gIfu7eqB6Fm5K78N-3" value="Write notification &lt;br&gt;and press send" style="shape=parallelogram;perimeter=parallelogramPerimeter;whiteSpace=wrap;html=1;fixedSize=1;fontFamily=OpenDyslexic;" vertex="1" parent="1">
          <mxGeometry x="200" y="190" width="120" height="60" as="geometry" />
        </mxCell>
        <mxCell id="90G_gIfu7eqB6Fm5K78N-11" style="edgeStyle=orthogonalEdgeStyle;rounded=0;orthogonalLoop=1;jettySize=auto;html=1;entryX=0;entryY=0.5;entryDx=0;entryDy=0;fontFamily=OpenDyslexic;" edge="1" parent="1" source="90G_gIfu7eqB6Fm5K78N-4" target="90G_gIfu7eqB6Fm5K78N-5">
          <mxGeometry relative="1" as="geometry">
            <Array as="points">
              <mxPoint x="415" y="150" />
            </Array>
          </mxGeometry>
        </mxCell>
        <mxCell id="Nmpd7Reqx-eBbkcXuMTZ-1" value="Yes" style="edgeLabel;html=1;align=center;verticalAlign=middle;resizable=0;points=[];fontFamily=OpenDyslexic;" vertex="1" connectable="0" parent="90G_gIfu7eqB6Fm5K78N-11">
          <mxGeometry x="-0.0773" y="1" relative="1" as="geometry">
            <mxPoint as="offset" />
          </mxGeometry>
        </mxCell>
        <mxCell id="90G_gIfu7eqB6Fm5K78N-12" style="edgeStyle=orthogonalEdgeStyle;rounded=0;orthogonalLoop=1;jettySize=auto;html=1;entryX=0;entryY=0.5;entryDx=0;entryDy=0;fontFamily=OpenDyslexic;" edge="1" parent="1" source="90G_gIfu7eqB6Fm5K78N-4" target="90G_gIfu7eqB6Fm5K78N-6">
          <mxGeometry relative="1" as="geometry">
            <Array as="points">
              <mxPoint x="415" y="310" />
            </Array>
          </mxGeometry>
        </mxCell>
        <mxCell id="Nmpd7Reqx-eBbkcXuMTZ-2" value="No" style="edgeLabel;html=1;align=center;verticalAlign=middle;resizable=0;points=[];fontFamily=OpenDyslexic;" vertex="1" connectable="0" parent="90G_gIfu7eqB6Fm5K78N-12">
          <mxGeometry x="0.1478" relative="1" as="geometry">
            <mxPoint as="offset" />
          </mxGeometry>
        </mxCell>
        <mxCell id="90G_gIfu7eqB6Fm5K78N-4" value="Was the &lt;br&gt;message received &lt;br&gt;on the other &lt;br&gt;end?" style="rhombus;whiteSpace=wrap;html=1;fontFamily=OpenDyslexic;" vertex="1" parent="1">
          <mxGeometry x="340" y="160" width="150" height="120" as="geometry" />
        </mxCell>
        <mxCell id="90G_gIfu7eqB6Fm5K78N-14" style="edgeStyle=orthogonalEdgeStyle;rounded=0;orthogonalLoop=1;jettySize=auto;html=1;entryX=0;entryY=0.5;entryDx=0;entryDy=0;fontFamily=OpenDyslexic;" edge="1" parent="1" source="90G_gIfu7eqB6Fm5K78N-5" target="90G_gIfu7eqB6Fm5K78N-7">
          <mxGeometry relative="1" as="geometry" />
        </mxCell>
        <mxCell id="90G_gIfu7eqB6Fm5K78N-5" value="Show &quot;success&quot; status" style="shape=parallelogram;perimeter=parallelogramPerimeter;whiteSpace=wrap;html=1;fixedSize=1;fontFamily=OpenDyslexic;" vertex="1" parent="1">
          <mxGeometry x="510" y="120" width="120" height="60" as="geometry" />
        </mxCell>
        <mxCell id="90G_gIfu7eqB6Fm5K78N-13" style="edgeStyle=orthogonalEdgeStyle;rounded=0;orthogonalLoop=1;jettySize=auto;html=1;entryX=0;entryY=0.5;entryDx=0;entryDy=0;fontFamily=OpenDyslexic;" edge="1" parent="1" source="90G_gIfu7eqB6Fm5K78N-6" target="90G_gIfu7eqB6Fm5K78N-7">
          <mxGeometry relative="1" as="geometry" />
        </mxCell>
        <mxCell id="90G_gIfu7eqB6Fm5K78N-6" value="Show &quot;failure&quot;&lt;br&gt;status" style="shape=parallelogram;perimeter=parallelogramPerimeter;whiteSpace=wrap;html=1;fixedSize=1;fontFamily=OpenDyslexic;" vertex="1" parent="1">
          <mxGeometry x="510" y="280" width="120" height="60" as="geometry" />
        </mxCell>
        <mxCell id="90G_gIfu7eqB6Fm5K78N-7" value="End" style="ellipse;whiteSpace=wrap;html=1;aspect=fixed;fontFamily=OpenDyslexic;" vertex="1" parent="1">
          <mxGeometry x="690" y="180" width="80" height="80" as="geometry" />
        </mxCell>
        <mxCell id="90G_gIfu7eqB6Fm5K78N-8" value="6" style="ellipse;whiteSpace=wrap;html=1;aspect=fixed;fontFamily=OpenDyslexic;fillColor=#a20025;fontColor=#ffffff;strokeColor=#6F0000;" vertex="1" parent="1">
          <mxGeometry x="750" y="170" width="30" height="30" as="geometry" />
        </mxCell>
        <mxCell id="90G_gIfu7eqB6Fm5K78N-15" value="2" style="ellipse;whiteSpace=wrap;html=1;aspect=fixed;fontFamily=OpenDyslexic;fillColor=#a20025;fontColor=#ffffff;strokeColor=#6F0000;" vertex="1" parent="1">
          <mxGeometry x="300" y="180" width="30" height="30" as="geometry" />
        </mxCell>
        <mxCell id="90G_gIfu7eqB6Fm5K78N-16" value="3" style="ellipse;whiteSpace=wrap;html=1;aspect=fixed;fontFamily=OpenDyslexic;fillColor=#a20025;fontColor=#ffffff;strokeColor=#6F0000;" vertex="1" parent="1">
          <mxGeometry x="480" y="205" width="30" height="30" as="geometry" />
        </mxCell>
        <mxCell id="90G_gIfu7eqB6Fm5K78N-17" value="4" style="ellipse;whiteSpace=wrap;html=1;aspect=fixed;fontFamily=OpenDyslexic;fillColor=#a20025;fontColor=#ffffff;strokeColor=#6F0000;" vertex="1" parent="1">
          <mxGeometry x="620" y="100" width="30" height="30" as="geometry" />
        </mxCell>
        <mxCell id="90G_gIfu7eqB6Fm5K78N-18" value="5" style="ellipse;whiteSpace=wrap;html=1;aspect=fixed;fontFamily=OpenDyslexic;fillColor=#a20025;fontColor=#ffffff;strokeColor=#6F0000;" vertex="1" parent="1">
          <mxGeometry x="620" y="260" width="30" height="30" as="geometry" />
        </mxCell>
      </root>
    </mxGraphModel>
  </diagram>
  <diagram id="V45C-HAsHiYY1RGTmowf" name="Page-4">
    <mxGraphModel dx="794" dy="843" grid="1" gridSize="10" guides="1" tooltips="1" connect="1" arrows="1" fold="1" page="1" pageScale="1" pageWidth="850" pageHeight="1100" math="0" shadow="0">
      <root>
        <mxCell id="0" />
        <mxCell id="1" parent="0" />
        <mxCell id="_D4invzb1tbZ6oTsDy-Q-12" style="edgeStyle=orthogonalEdgeStyle;rounded=0;orthogonalLoop=1;jettySize=auto;html=1;fontFamily=OpenDyslexic;" edge="1" parent="1" source="U-z0BTBDeHnGPIWaMt0--1" target="_D4invzb1tbZ6oTsDy-Q-2">
          <mxGeometry relative="1" as="geometry" />
        </mxCell>
        <mxCell id="U-z0BTBDeHnGPIWaMt0--1" value="Start" style="ellipse;whiteSpace=wrap;html=1;aspect=fixed;fontFamily=OpenDyslexic;" vertex="1" parent="1">
          <mxGeometry x="40" y="160" width="80" height="80" as="geometry" />
        </mxCell>
        <mxCell id="U-z0BTBDeHnGPIWaMt0--2" value="1" style="ellipse;whiteSpace=wrap;html=1;aspect=fixed;fontFamily=OpenDyslexic;fillColor=#a20025;fontColor=#ffffff;strokeColor=#6F0000;" vertex="1" parent="1">
          <mxGeometry x="100" y="160" width="30" height="30" as="geometry" />
        </mxCell>
        <mxCell id="_D4invzb1tbZ6oTsDy-Q-13" style="edgeStyle=orthogonalEdgeStyle;rounded=0;orthogonalLoop=1;jettySize=auto;html=1;entryX=0;entryY=0.5;entryDx=0;entryDy=0;fontFamily=OpenDyslexic;" edge="1" parent="1" source="_D4invzb1tbZ6oTsDy-Q-2" target="_D4invzb1tbZ6oTsDy-Q-3">
          <mxGeometry relative="1" as="geometry" />
        </mxCell>
        <mxCell id="_D4invzb1tbZ6oTsDy-Q-2" value="Send connection petiton to DB server" style="rounded=0;whiteSpace=wrap;html=1;fontFamily=OpenDyslexic;" vertex="1" parent="1">
          <mxGeometry x="200" y="170" width="120" height="60" as="geometry" />
        </mxCell>
        <mxCell id="_D4invzb1tbZ6oTsDy-Q-14" style="edgeStyle=orthogonalEdgeStyle;rounded=0;orthogonalLoop=1;jettySize=auto;html=1;entryX=0;entryY=0.5;entryDx=0;entryDy=0;fontFamily=OpenDyslexic;" edge="1" parent="1" source="_D4invzb1tbZ6oTsDy-Q-3" target="_D4invzb1tbZ6oTsDy-Q-4">
          <mxGeometry relative="1" as="geometry" />
        </mxCell>
        <mxCell id="_D4invzb1tbZ6oTsDy-Q-15" style="edgeStyle=orthogonalEdgeStyle;rounded=0;orthogonalLoop=1;jettySize=auto;html=1;entryX=0.5;entryY=0;entryDx=0;entryDy=0;fontFamily=OpenDyslexic;" edge="1" parent="1" source="_D4invzb1tbZ6oTsDy-Q-3" target="_D4invzb1tbZ6oTsDy-Q-5">
          <mxGeometry relative="1" as="geometry" />
        </mxCell>
        <mxCell id="_D4invzb1tbZ6oTsDy-Q-3" value="Was the connection successful?" style="rhombus;whiteSpace=wrap;html=1;fontFamily=OpenDyslexic;" vertex="1" parent="1">
          <mxGeometry x="400" y="160" width="170" height="80" as="geometry" />
        </mxCell>
        <mxCell id="_D4invzb1tbZ6oTsDy-Q-16" style="edgeStyle=orthogonalEdgeStyle;rounded=0;orthogonalLoop=1;jettySize=auto;html=1;fontFamily=OpenDyslexic;" edge="1" parent="1" source="_D4invzb1tbZ6oTsDy-Q-4" target="_D4invzb1tbZ6oTsDy-Q-11">
          <mxGeometry relative="1" as="geometry" />
        </mxCell>
        <mxCell id="_D4invzb1tbZ6oTsDy-Q-4" value="Show error 401: Unauthorized or 404: database not found" style="shape=parallelogram;perimeter=parallelogramPerimeter;whiteSpace=wrap;html=1;fixedSize=1;fontFamily=OpenDyslexic;" vertex="1" parent="1">
          <mxGeometry x="650" y="170" width="160" height="60" as="geometry" />
        </mxCell>
        <mxCell id="_D4invzb1tbZ6oTsDy-Q-17" style="edgeStyle=orthogonalEdgeStyle;rounded=0;orthogonalLoop=1;jettySize=auto;html=1;entryX=1;entryY=0.5;entryDx=0;entryDy=0;fontFamily=OpenDyslexic;" edge="1" parent="1" source="_D4invzb1tbZ6oTsDy-Q-5" target="_D4invzb1tbZ6oTsDy-Q-6">
          <mxGeometry relative="1" as="geometry" />
        </mxCell>
        <mxCell id="_D4invzb1tbZ6oTsDy-Q-5" value="Make a read query to the database" style="rounded=0;whiteSpace=wrap;html=1;fontFamily=OpenDyslexic;" vertex="1" parent="1">
          <mxGeometry x="425" y="300" width="120" height="60" as="geometry" />
        </mxCell>
        <mxCell id="_D4invzb1tbZ6oTsDy-Q-18" style="edgeStyle=orthogonalEdgeStyle;rounded=0;orthogonalLoop=1;jettySize=auto;html=1;fontFamily=OpenDyslexic;" edge="1" parent="1" source="_D4invzb1tbZ6oTsDy-Q-6" target="_D4invzb1tbZ6oTsDy-Q-7">
          <mxGeometry relative="1" as="geometry" />
        </mxCell>
        <mxCell id="_D4invzb1tbZ6oTsDy-Q-24" value="Yes" style="edgeLabel;html=1;align=center;verticalAlign=middle;resizable=0;points=[];fontFamily=OpenDyslexic;" vertex="1" connectable="0" parent="_D4invzb1tbZ6oTsDy-Q-18">
          <mxGeometry x="0.0613" y="-1" relative="1" as="geometry">
            <mxPoint as="offset" />
          </mxGeometry>
        </mxCell>
        <mxCell id="_D4invzb1tbZ6oTsDy-Q-20" style="edgeStyle=orthogonalEdgeStyle;rounded=0;orthogonalLoop=1;jettySize=auto;html=1;entryX=0;entryY=0.5;entryDx=0;entryDy=0;fontFamily=OpenDyslexic;" edge="1" parent="1" source="_D4invzb1tbZ6oTsDy-Q-6" target="_D4invzb1tbZ6oTsDy-Q-9">
          <mxGeometry relative="1" as="geometry">
            <Array as="points">
              <mxPoint x="260" y="430" />
            </Array>
          </mxGeometry>
        </mxCell>
        <mxCell id="_D4invzb1tbZ6oTsDy-Q-23" value="No" style="edgeLabel;html=1;align=center;verticalAlign=middle;resizable=0;points=[];fontFamily=OpenDyslexic;" vertex="1" connectable="0" parent="_D4invzb1tbZ6oTsDy-Q-20">
          <mxGeometry x="-0.5511" y="-1" relative="1" as="geometry">
            <mxPoint as="offset" />
          </mxGeometry>
        </mxCell>
        <mxCell id="_D4invzb1tbZ6oTsDy-Q-6" value="Was the query &lt;br&gt;successful?" style="rhombus;whiteSpace=wrap;html=1;fontFamily=OpenDyslexic;" vertex="1" parent="1">
          <mxGeometry x="205" y="290" width="145" height="80" as="geometry" />
        </mxCell>
        <mxCell id="_D4invzb1tbZ6oTsDy-Q-19" style="edgeStyle=orthogonalEdgeStyle;rounded=0;orthogonalLoop=1;jettySize=auto;html=1;entryX=0.5;entryY=0;entryDx=0;entryDy=0;fontFamily=OpenDyslexic;" edge="1" parent="1" source="_D4invzb1tbZ6oTsDy-Q-7" target="_D4invzb1tbZ6oTsDy-Q-10">
          <mxGeometry relative="1" as="geometry" />
        </mxCell>
        <mxCell id="_D4invzb1tbZ6oTsDy-Q-7" value="Display the &lt;br&gt;database &lt;br&gt;result" style="shape=parallelogram;perimeter=parallelogramPerimeter;whiteSpace=wrap;html=1;fixedSize=1;fontFamily=OpenDyslexic;" vertex="1" parent="1">
          <mxGeometry x="20" y="300" width="120" height="60" as="geometry" />
        </mxCell>
        <mxCell id="_D4invzb1tbZ6oTsDy-Q-21" style="edgeStyle=orthogonalEdgeStyle;rounded=0;orthogonalLoop=1;jettySize=auto;html=1;entryX=0.5;entryY=1;entryDx=0;entryDy=0;fontFamily=OpenDyslexic;" edge="1" parent="1" source="_D4invzb1tbZ6oTsDy-Q-9" target="_D4invzb1tbZ6oTsDy-Q-5">
          <mxGeometry relative="1" as="geometry" />
        </mxCell>
        <mxCell id="_D4invzb1tbZ6oTsDy-Q-22" value="Try again" style="edgeLabel;html=1;align=center;verticalAlign=middle;resizable=0;points=[];fontFamily=OpenDyslexic;" vertex="1" connectable="0" parent="_D4invzb1tbZ6oTsDy-Q-21">
          <mxGeometry x="-0.3484" relative="1" as="geometry">
            <mxPoint as="offset" />
          </mxGeometry>
        </mxCell>
        <mxCell id="_D4invzb1tbZ6oTsDy-Q-9" value="Show error 500: &lt;br&gt;internal server error &lt;br&gt;+ database error message" style="shape=parallelogram;perimeter=parallelogramPerimeter;whiteSpace=wrap;html=1;fixedSize=1;fontFamily=OpenDyslexic;" vertex="1" parent="1">
          <mxGeometry x="260" y="400" width="160" height="60" as="geometry" />
        </mxCell>
        <mxCell id="_D4invzb1tbZ6oTsDy-Q-10" value="End" style="ellipse;whiteSpace=wrap;html=1;aspect=fixed;fontFamily=OpenDyslexic;" vertex="1" parent="1">
          <mxGeometry x="40" y="390" width="80" height="80" as="geometry" />
        </mxCell>
        <mxCell id="_D4invzb1tbZ6oTsDy-Q-11" value="End" style="ellipse;whiteSpace=wrap;html=1;aspect=fixed;fontFamily=OpenDyslexic;" vertex="1" parent="1">
          <mxGeometry x="690" y="290" width="80" height="80" as="geometry" />
        </mxCell>
        <mxCell id="_D4invzb1tbZ6oTsDy-Q-26" value="2" style="ellipse;whiteSpace=wrap;html=1;aspect=fixed;fontFamily=OpenDyslexic;fillColor=#a20025;fontColor=#ffffff;strokeColor=#6F0000;" vertex="1" parent="1">
          <mxGeometry x="310" y="150" width="30" height="30" as="geometry" />
        </mxCell>
        <mxCell id="_D4invzb1tbZ6oTsDy-Q-27" value="3" style="ellipse;whiteSpace=wrap;html=1;aspect=fixed;fontFamily=OpenDyslexic;fillColor=#a20025;fontColor=#ffffff;strokeColor=#6F0000;" vertex="1" parent="1">
          <mxGeometry x="470" y="140" width="30" height="30" as="geometry" />
        </mxCell>
        <mxCell id="_D4invzb1tbZ6oTsDy-Q-28" value="4" style="ellipse;whiteSpace=wrap;html=1;aspect=fixed;fontFamily=OpenDyslexic;fillColor=#a20025;fontColor=#ffffff;strokeColor=#6F0000;" vertex="1" parent="1">
          <mxGeometry x="530" y="280" width="30" height="30" as="geometry" />
        </mxCell>
        <mxCell id="_D4invzb1tbZ6oTsDy-Q-29" value="5" style="ellipse;whiteSpace=wrap;html=1;aspect=fixed;fontFamily=OpenDyslexic;fillColor=#a20025;fontColor=#ffffff;strokeColor=#6F0000;" vertex="1" parent="1">
          <mxGeometry x="790" y="150" width="30" height="30" as="geometry" />
        </mxCell>
        <mxCell id="_D4invzb1tbZ6oTsDy-Q-30" value="6" style="ellipse;whiteSpace=wrap;html=1;aspect=fixed;fontFamily=OpenDyslexic;fillColor=#a20025;fontColor=#ffffff;strokeColor=#6F0000;" vertex="1" parent="1">
          <mxGeometry x="262.5" y="270" width="30" height="30" as="geometry" />
        </mxCell>
        <mxCell id="_D4invzb1tbZ6oTsDy-Q-31" value="7" style="ellipse;whiteSpace=wrap;html=1;aspect=fixed;fontFamily=OpenDyslexic;fillColor=#a20025;fontColor=#ffffff;strokeColor=#6F0000;" vertex="1" parent="1">
          <mxGeometry x="120" y="280" width="30" height="30" as="geometry" />
        </mxCell>
        <mxCell id="_D4invzb1tbZ6oTsDy-Q-32" value="8" style="ellipse;whiteSpace=wrap;html=1;aspect=fixed;fontFamily=OpenDyslexic;fillColor=#a20025;fontColor=#ffffff;strokeColor=#6F0000;" vertex="1" parent="1">
          <mxGeometry x="400" y="380" width="30" height="30" as="geometry" />
        </mxCell>
        <mxCell id="_D4invzb1tbZ6oTsDy-Q-33" value="9" style="ellipse;whiteSpace=wrap;html=1;aspect=fixed;fontFamily=OpenDyslexic;fillColor=#a20025;fontColor=#ffffff;strokeColor=#6F0000;" vertex="1" parent="1">
          <mxGeometry x="100" y="380" width="30" height="30" as="geometry" />
        </mxCell>
        <mxCell id="_D4invzb1tbZ6oTsDy-Q-34" value="9" style="ellipse;whiteSpace=wrap;html=1;aspect=fixed;fontFamily=OpenDyslexic;fillColor=#a20025;fontColor=#ffffff;strokeColor=#6F0000;" vertex="1" parent="1">
          <mxGeometry x="750" y="280" width="30" height="30" as="geometry" />
        </mxCell>
      </root>
    </mxGraphModel>
  </diagram>
  <diagram id="bveL6wMS25BQZuluQJQc" name="Page-5">
    <mxGraphModel dx="548" dy="581" grid="1" gridSize="10" guides="1" tooltips="1" connect="1" arrows="1" fold="1" page="1" pageScale="1" pageWidth="850" pageHeight="1100" math="0" shadow="0">
      <root>
        <mxCell id="0" />
        <mxCell id="1" parent="0" />
        <mxCell id="u-vUxWLGsVN5FgtXom02-12" style="edgeStyle=orthogonalEdgeStyle;rounded=0;orthogonalLoop=1;jettySize=auto;html=1;entryX=0;entryY=0.5;entryDx=0;entryDy=0;fontFamily=OpenDyslexic;" edge="1" parent="1" source="u-vUxWLGsVN5FgtXom02-1" target="u-vUxWLGsVN5FgtXom02-3">
          <mxGeometry relative="1" as="geometry" />
        </mxCell>
        <mxCell id="u-vUxWLGsVN5FgtXom02-1" value="Start" style="ellipse;whiteSpace=wrap;html=1;aspect=fixed;fontFamily=OpenDyslexic;" vertex="1" parent="1">
          <mxGeometry x="40" y="160" width="80" height="80" as="geometry" />
        </mxCell>
        <mxCell id="u-vUxWLGsVN5FgtXom02-2" value="1" style="ellipse;whiteSpace=wrap;html=1;aspect=fixed;fontFamily=OpenDyslexic;fillColor=#a20025;fontColor=#ffffff;strokeColor=#6F0000;" vertex="1" parent="1">
          <mxGeometry x="100" y="160" width="30" height="30" as="geometry" />
        </mxCell>
        <mxCell id="u-vUxWLGsVN5FgtXom02-13" style="edgeStyle=orthogonalEdgeStyle;rounded=0;orthogonalLoop=1;jettySize=auto;html=1;entryX=0;entryY=0.5;entryDx=0;entryDy=0;fontFamily=OpenDyslexic;" edge="1" parent="1" source="u-vUxWLGsVN5FgtXom02-3" target="u-vUxWLGsVN5FgtXom02-4">
          <mxGeometry relative="1" as="geometry" />
        </mxCell>
        <mxCell id="u-vUxWLGsVN5FgtXom02-3" value="Get input &lt;br&gt;from field" style="shape=parallelogram;perimeter=parallelogramPerimeter;whiteSpace=wrap;html=1;fixedSize=1;fontFamily=OpenDyslexic;" vertex="1" parent="1">
          <mxGeometry x="190" y="170" width="120" height="60" as="geometry" />
        </mxCell>
        <mxCell id="u-vUxWLGsVN5FgtXom02-14" style="edgeStyle=orthogonalEdgeStyle;rounded=0;orthogonalLoop=1;jettySize=auto;html=1;entryX=1;entryY=0.5;entryDx=0;entryDy=0;fontFamily=OpenDyslexic;" edge="1" parent="1" source="u-vUxWLGsVN5FgtXom02-4" target="u-vUxWLGsVN5FgtXom02-5">
          <mxGeometry relative="1" as="geometry">
            <Array as="points">
              <mxPoint x="441" y="110" />
            </Array>
          </mxGeometry>
        </mxCell>
        <mxCell id="u-vUxWLGsVN5FgtXom02-19" value="Yes" style="edgeLabel;html=1;align=center;verticalAlign=middle;resizable=0;points=[];fontFamily=OpenDyslexic;" vertex="1" connectable="0" parent="u-vUxWLGsVN5FgtXom02-14">
          <mxGeometry x="-0.5233" y="-3" relative="1" as="geometry">
            <mxPoint as="offset" />
          </mxGeometry>
        </mxCell>
        <mxCell id="u-vUxWLGsVN5FgtXom02-16" style="edgeStyle=orthogonalEdgeStyle;rounded=0;orthogonalLoop=1;jettySize=auto;html=1;fontFamily=OpenDyslexic;" edge="1" parent="1" source="u-vUxWLGsVN5FgtXom02-4" target="u-vUxWLGsVN5FgtXom02-6">
          <mxGeometry relative="1" as="geometry" />
        </mxCell>
        <mxCell id="u-vUxWLGsVN5FgtXom02-20" value="No" style="edgeLabel;html=1;align=center;verticalAlign=middle;resizable=0;points=[];fontFamily=OpenDyslexic;" vertex="1" connectable="0" parent="u-vUxWLGsVN5FgtXom02-16">
          <mxGeometry x="-0.42" y="1" relative="1" as="geometry">
            <mxPoint as="offset" />
          </mxGeometry>
        </mxCell>
        <mxCell id="u-vUxWLGsVN5FgtXom02-4" value="Was the field empty?" style="rhombus;whiteSpace=wrap;html=1;fontFamily=OpenDyslexic;" vertex="1" parent="1">
          <mxGeometry x="401" y="160" width="80" height="80" as="geometry" />
        </mxCell>
        <mxCell id="u-vUxWLGsVN5FgtXom02-21" style="edgeStyle=orthogonalEdgeStyle;rounded=0;orthogonalLoop=1;jettySize=auto;html=1;entryX=0.5;entryY=0;entryDx=0;entryDy=0;" edge="1" parent="1" source="u-vUxWLGsVN5FgtXom02-5" target="u-vUxWLGsVN5FgtXom02-3">
          <mxGeometry relative="1" as="geometry">
            <Array as="points">
              <mxPoint x="250" y="110" />
              <mxPoint x="250" y="150" />
              <mxPoint x="250" y="150" />
            </Array>
          </mxGeometry>
        </mxCell>
        <mxCell id="u-vUxWLGsVN5FgtXom02-5" value="Show error message&amp;nbsp;" style="shape=parallelogram;perimeter=parallelogramPerimeter;whiteSpace=wrap;html=1;fixedSize=1;fontFamily=OpenDyslexic;" vertex="1" parent="1">
          <mxGeometry x="281" y="80" width="120" height="60" as="geometry" />
        </mxCell>
        <mxCell id="u-vUxWLGsVN5FgtXom02-17" style="edgeStyle=orthogonalEdgeStyle;rounded=0;orthogonalLoop=1;jettySize=auto;html=1;fontFamily=OpenDyslexic;" edge="1" parent="1" source="u-vUxWLGsVN5FgtXom02-6" target="u-vUxWLGsVN5FgtXom02-7">
          <mxGeometry relative="1" as="geometry" />
        </mxCell>
        <mxCell id="u-vUxWLGsVN5FgtXom02-6" value="The submit button gets enabled" style="rounded=0;whiteSpace=wrap;html=1;fontFamily=OpenDyslexic;" vertex="1" parent="1">
          <mxGeometry x="381" y="290" width="120" height="60" as="geometry" />
        </mxCell>
        <mxCell id="u-vUxWLGsVN5FgtXom02-18" style="edgeStyle=orthogonalEdgeStyle;rounded=0;orthogonalLoop=1;jettySize=auto;html=1;entryX=1;entryY=0.5;entryDx=0;entryDy=0;fontFamily=OpenDyslexic;" edge="1" parent="1" source="u-vUxWLGsVN5FgtXom02-7" target="u-vUxWLGsVN5FgtXom02-10">
          <mxGeometry relative="1" as="geometry" />
        </mxCell>
        <mxCell id="u-vUxWLGsVN5FgtXom02-7" value="Submit button &lt;br&gt;is pressed" style="shape=parallelogram;perimeter=parallelogramPerimeter;whiteSpace=wrap;html=1;fixedSize=1;fontFamily=OpenDyslexic;" vertex="1" parent="1">
          <mxGeometry x="190" y="290" width="120" height="60" as="geometry" />
        </mxCell>
        <mxCell id="u-vUxWLGsVN5FgtXom02-10" value="End" style="ellipse;whiteSpace=wrap;html=1;aspect=fixed;fontFamily=OpenDyslexic;" vertex="1" parent="1">
          <mxGeometry x="40" y="280" width="80" height="80" as="geometry" />
        </mxCell>
        <mxCell id="u-vUxWLGsVN5FgtXom02-11" value="7" style="ellipse;whiteSpace=wrap;html=1;aspect=fixed;fontFamily=OpenDyslexic;fillColor=#a20025;fontColor=#ffffff;strokeColor=#6F0000;" vertex="1" parent="1">
          <mxGeometry x="100" y="280" width="30" height="30" as="geometry" />
        </mxCell>
        <mxCell id="u-vUxWLGsVN5FgtXom02-22" value="2" style="ellipse;whiteSpace=wrap;html=1;aspect=fixed;fontFamily=OpenDyslexic;fillColor=#a20025;fontColor=#ffffff;strokeColor=#6F0000;" vertex="1" parent="1">
          <mxGeometry x="290" y="160" width="30" height="30" as="geometry" />
        </mxCell>
        <mxCell id="u-vUxWLGsVN5FgtXom02-23" value="3" style="ellipse;whiteSpace=wrap;html=1;aspect=fixed;fontFamily=OpenDyslexic;fillColor=#a20025;fontColor=#ffffff;strokeColor=#6F0000;" vertex="1" parent="1">
          <mxGeometry x="471" y="185" width="30" height="30" as="geometry" />
        </mxCell>
        <mxCell id="u-vUxWLGsVN5FgtXom02-24" value="4" style="ellipse;whiteSpace=wrap;html=1;aspect=fixed;fontFamily=OpenDyslexic;fillColor=#a20025;fontColor=#ffffff;strokeColor=#6F0000;" vertex="1" parent="1">
          <mxGeometry x="381" y="70" width="30" height="30" as="geometry" />
        </mxCell>
        <mxCell id="u-vUxWLGsVN5FgtXom02-25" value="5" style="ellipse;whiteSpace=wrap;html=1;aspect=fixed;fontFamily=OpenDyslexic;fillColor=#a20025;fontColor=#ffffff;strokeColor=#6F0000;" vertex="1" parent="1">
          <mxGeometry x="490" y="270" width="30" height="30" as="geometry" />
        </mxCell>
        <mxCell id="u-vUxWLGsVN5FgtXom02-26" value="6" style="ellipse;whiteSpace=wrap;html=1;aspect=fixed;fontFamily=OpenDyslexic;fillColor=#a20025;fontColor=#ffffff;strokeColor=#6F0000;" vertex="1" parent="1">
          <mxGeometry x="290" y="270" width="30" height="30" as="geometry" />
        </mxCell>
      </root>
    </mxGraphModel>
  </diagram>
  <diagram id="_naE9TBz330e_GnWz6dA" name="Page-7">
    <mxGraphModel dx="934" dy="992" grid="1" gridSize="10" guides="1" tooltips="1" connect="1" arrows="1" fold="1" page="1" pageScale="1" pageWidth="850" pageHeight="1100" math="0" shadow="0">
      <root>
        <mxCell id="0" />
        <mxCell id="1" parent="0" />
        <mxCell id="WKYqmJJfLvBLdVf7iazk-1" style="edgeStyle=orthogonalEdgeStyle;rounded=0;orthogonalLoop=1;jettySize=auto;html=1;entryX=0;entryY=0.5;entryDx=0;entryDy=0;fontFamily=OpenDyslexic;" edge="1" parent="1" source="uHnnwwv4em5CIiJBD4Vx-1" target="uHnnwwv4em5CIiJBD4Vx-3">
          <mxGeometry relative="1" as="geometry" />
        </mxCell>
        <mxCell id="uHnnwwv4em5CIiJBD4Vx-1" value="Start" style="ellipse;whiteSpace=wrap;html=1;aspect=fixed;fontFamily=OpenDyslexic;fontStyle=1" vertex="1" parent="1">
          <mxGeometry x="40" y="160" width="80" height="80" as="geometry" />
        </mxCell>
        <mxCell id="uHnnwwv4em5CIiJBD4Vx-2" value="1" style="ellipse;whiteSpace=wrap;html=1;aspect=fixed;fontFamily=OpenDyslexic;fillColor=#a20025;fontColor=#ffffff;strokeColor=#6F0000;" vertex="1" parent="1">
          <mxGeometry x="100" y="160" width="30" height="30" as="geometry" />
        </mxCell>
        <mxCell id="WKYqmJJfLvBLdVf7iazk-2" style="edgeStyle=orthogonalEdgeStyle;rounded=0;orthogonalLoop=1;jettySize=auto;html=1;entryX=0;entryY=0.5;entryDx=0;entryDy=0;fontFamily=OpenDyslexic;" edge="1" parent="1" source="uHnnwwv4em5CIiJBD4Vx-3" target="uHnnwwv4em5CIiJBD4Vx-4">
          <mxGeometry relative="1" as="geometry" />
        </mxCell>
        <mxCell id="uHnnwwv4em5CIiJBD4Vx-3" value="User enters &lt;br&gt;register details" style="shape=parallelogram;perimeter=parallelogramPerimeter;whiteSpace=wrap;html=1;fixedSize=1;fontFamily=OpenDyslexic;" vertex="1" parent="1">
          <mxGeometry x="180" y="170" width="120" height="60" as="geometry" />
        </mxCell>
        <mxCell id="WKYqmJJfLvBLdVf7iazk-3" style="edgeStyle=orthogonalEdgeStyle;rounded=0;orthogonalLoop=1;jettySize=auto;html=1;fontFamily=OpenDyslexic;" edge="1" parent="1" source="uHnnwwv4em5CIiJBD4Vx-4" target="uHnnwwv4em5CIiJBD4Vx-6">
          <mxGeometry relative="1" as="geometry" />
        </mxCell>
        <mxCell id="WKYqmJJfLvBLdVf7iazk-16" value="No" style="edgeLabel;html=1;align=center;verticalAlign=middle;resizable=0;points=[];fontFamily=OpenDyslexic;" vertex="1" connectable="0" parent="WKYqmJJfLvBLdVf7iazk-3">
          <mxGeometry x="0.1167" y="1" relative="1" as="geometry">
            <mxPoint as="offset" />
          </mxGeometry>
        </mxCell>
        <mxCell id="uHnnwwv4em5CIiJBD4Vx-4" value="Is the data inputed in the right format/content?" style="rhombus;whiteSpace=wrap;html=1;fontFamily=OpenDyslexic;" vertex="1" parent="1">
          <mxGeometry x="360" y="130" width="160" height="140" as="geometry" />
        </mxCell>
        <mxCell id="WKYqmJJfLvBLdVf7iazk-17" style="edgeStyle=orthogonalEdgeStyle;rounded=0;orthogonalLoop=1;jettySize=auto;html=1;entryX=1;entryY=0;entryDx=0;entryDy=0;fontFamily=OpenDyslexic;" edge="1" parent="1" source="uHnnwwv4em5CIiJBD4Vx-6" target="uHnnwwv4em5CIiJBD4Vx-4">
          <mxGeometry relative="1" as="geometry">
            <Array as="points">
              <mxPoint x="650" y="150" />
              <mxPoint x="480" y="150" />
            </Array>
          </mxGeometry>
        </mxCell>
        <mxCell id="uHnnwwv4em5CIiJBD4Vx-6" value="Invalid data &lt;br&gt;error is &lt;br&gt;displayed" style="shape=parallelogram;perimeter=parallelogramPerimeter;whiteSpace=wrap;html=1;fixedSize=1;fontFamily=OpenDyslexic;" vertex="1" parent="1">
          <mxGeometry x="590" y="170" width="120" height="60" as="geometry" />
        </mxCell>
        <mxCell id="WKYqmJJfLvBLdVf7iazk-7" style="edgeStyle=orthogonalEdgeStyle;rounded=0;orthogonalLoop=1;jettySize=auto;html=1;entryX=1;entryY=0.5;entryDx=0;entryDy=0;fontFamily=OpenDyslexic;" edge="1" parent="1" source="uHnnwwv4em5CIiJBD4Vx-7" target="uHnnwwv4em5CIiJBD4Vx-8">
          <mxGeometry relative="1" as="geometry" />
        </mxCell>
        <mxCell id="uHnnwwv4em5CIiJBD4Vx-7" value="The system generates a user account" style="rounded=0;whiteSpace=wrap;html=1;fontFamily=OpenDyslexic;" vertex="1" parent="1">
          <mxGeometry x="560" y="330" width="120" height="60" as="geometry" />
        </mxCell>
        <mxCell id="WKYqmJJfLvBLdVf7iazk-8" style="edgeStyle=orthogonalEdgeStyle;rounded=0;orthogonalLoop=1;jettySize=auto;html=1;entryX=1;entryY=0.5;entryDx=0;entryDy=0;fontFamily=OpenDyslexic;" edge="1" parent="1" source="uHnnwwv4em5CIiJBD4Vx-8" target="uHnnwwv4em5CIiJBD4Vx-11">
          <mxGeometry relative="1" as="geometry" />
        </mxCell>
        <mxCell id="uHnnwwv4em5CIiJBD4Vx-8" value="Validaton email is sent" style="rounded=0;whiteSpace=wrap;html=1;fontFamily=OpenDyslexic;" vertex="1" parent="1">
          <mxGeometry x="380" y="330" width="120" height="60" as="geometry" />
        </mxCell>
        <mxCell id="WKYqmJJfLvBLdVf7iazk-11" style="edgeStyle=orthogonalEdgeStyle;rounded=0;orthogonalLoop=1;jettySize=auto;html=1;entryX=0.5;entryY=1;entryDx=0;entryDy=0;fontFamily=OpenDyslexic;" edge="1" parent="1" source="uHnnwwv4em5CIiJBD4Vx-10" target="uHnnwwv4em5CIiJBD4Vx-8">
          <mxGeometry relative="1" as="geometry" />
        </mxCell>
        <mxCell id="uHnnwwv4em5CIiJBD4Vx-10" value="Display error message" style="shape=parallelogram;perimeter=parallelogramPerimeter;whiteSpace=wrap;html=1;fixedSize=1;fontFamily=OpenDyslexic;" vertex="1" parent="1">
          <mxGeometry x="195" y="450" width="120" height="60" as="geometry" />
        </mxCell>
        <mxCell id="WKYqmJJfLvBLdVf7iazk-9" style="edgeStyle=orthogonalEdgeStyle;rounded=0;orthogonalLoop=1;jettySize=auto;html=1;fontFamily=OpenDyslexic;" edge="1" parent="1" source="uHnnwwv4em5CIiJBD4Vx-11" target="uHnnwwv4em5CIiJBD4Vx-10">
          <mxGeometry relative="1" as="geometry" />
        </mxCell>
        <mxCell id="WKYqmJJfLvBLdVf7iazk-23" value="No" style="edgeLabel;html=1;align=center;verticalAlign=middle;resizable=0;points=[];fontFamily=OpenDyslexic;" vertex="1" connectable="0" parent="WKYqmJJfLvBLdVf7iazk-9">
          <mxGeometry x="0.2918" relative="1" as="geometry">
            <mxPoint as="offset" />
          </mxGeometry>
        </mxCell>
        <mxCell id="WKYqmJJfLvBLdVf7iazk-10" style="edgeStyle=orthogonalEdgeStyle;rounded=0;orthogonalLoop=1;jettySize=auto;html=1;fontFamily=OpenDyslexic;" edge="1" parent="1" source="uHnnwwv4em5CIiJBD4Vx-11" target="uHnnwwv4em5CIiJBD4Vx-12">
          <mxGeometry relative="1" as="geometry" />
        </mxCell>
        <mxCell id="WKYqmJJfLvBLdVf7iazk-22" value="Yes" style="edgeLabel;html=1;align=center;verticalAlign=middle;resizable=0;points=[];fontFamily=OpenDyslexic;" vertex="1" connectable="0" parent="WKYqmJJfLvBLdVf7iazk-10">
          <mxGeometry x="-0.3857" y="1" relative="1" as="geometry">
            <mxPoint as="offset" />
          </mxGeometry>
        </mxCell>
        <mxCell id="uHnnwwv4em5CIiJBD4Vx-11" value="Did the user &lt;br&gt;validate their email correctly?" style="rhombus;whiteSpace=wrap;html=1;fontFamily=OpenDyslexic;" vertex="1" parent="1">
          <mxGeometry x="180" y="300" width="150" height="120" as="geometry" />
        </mxCell>
        <mxCell id="WKYqmJJfLvBLdVf7iazk-13" style="edgeStyle=orthogonalEdgeStyle;rounded=0;orthogonalLoop=1;jettySize=auto;html=1;fontFamily=OpenDyslexic;" edge="1" parent="1" source="uHnnwwv4em5CIiJBD4Vx-12" target="WKYqmJJfLvBLdVf7iazk-12">
          <mxGeometry relative="1" as="geometry" />
        </mxCell>
        <mxCell id="uHnnwwv4em5CIiJBD4Vx-12" value="The system logs in the user" style="rounded=0;whiteSpace=wrap;html=1;fontFamily=OpenDyslexic;" vertex="1" parent="1">
          <mxGeometry x="20" y="330" width="120" height="60" as="geometry" />
        </mxCell>
        <mxCell id="WKYqmJJfLvBLdVf7iazk-6" value="" style="endArrow=classic;html=1;rounded=0;entryX=0.5;entryY=0;entryDx=0;entryDy=0;exitX=1;exitY=1;exitDx=0;exitDy=0;fontFamily=OpenDyslexic;" edge="1" parent="1" source="uHnnwwv4em5CIiJBD4Vx-4" target="uHnnwwv4em5CIiJBD4Vx-7">
          <mxGeometry width="50" height="50" relative="1" as="geometry">
            <mxPoint x="350" y="420" as="sourcePoint" />
            <mxPoint x="400" y="370" as="targetPoint" />
          </mxGeometry>
        </mxCell>
        <mxCell id="WKYqmJJfLvBLdVf7iazk-27" value="Yes" style="edgeLabel;html=1;align=center;verticalAlign=middle;resizable=0;points=[];fontFamily=OpenDyslexic;" vertex="1" connectable="0" parent="WKYqmJJfLvBLdVf7iazk-6">
          <mxGeometry x="-0.3696" y="-1" relative="1" as="geometry">
            <mxPoint as="offset" />
          </mxGeometry>
        </mxCell>
        <mxCell id="WKYqmJJfLvBLdVf7iazk-12" value="End" style="ellipse;whiteSpace=wrap;html=1;aspect=fixed;fontFamily=OpenDyslexic;" vertex="1" parent="1">
          <mxGeometry x="40" y="440" width="80" height="80" as="geometry" />
        </mxCell>
        <mxCell id="WKYqmJJfLvBLdVf7iazk-14" value="2" style="ellipse;whiteSpace=wrap;html=1;aspect=fixed;fontFamily=OpenDyslexic;fillColor=#a20025;fontColor=#ffffff;strokeColor=#6F0000;" vertex="1" parent="1">
          <mxGeometry x="285" y="160" width="30" height="30" as="geometry" />
        </mxCell>
        <mxCell id="WKYqmJJfLvBLdVf7iazk-15" value="3" style="ellipse;whiteSpace=wrap;html=1;aspect=fixed;fontFamily=OpenDyslexic;fillColor=#a20025;fontColor=#ffffff;strokeColor=#6F0000;" vertex="1" parent="1">
          <mxGeometry x="425" y="120" width="30" height="30" as="geometry" />
        </mxCell>
        <mxCell id="WKYqmJJfLvBLdVf7iazk-18" value="4" style="ellipse;whiteSpace=wrap;html=1;aspect=fixed;fontFamily=OpenDyslexic;fillColor=#a20025;fontColor=#ffffff;strokeColor=#6F0000;" vertex="1" parent="1">
          <mxGeometry x="700" y="150" width="30" height="30" as="geometry" />
        </mxCell>
        <mxCell id="WKYqmJJfLvBLdVf7iazk-19" value="5" style="ellipse;whiteSpace=wrap;html=1;aspect=fixed;fontFamily=OpenDyslexic;fillColor=#a20025;fontColor=#ffffff;strokeColor=#6F0000;" vertex="1" parent="1">
          <mxGeometry x="670" y="310" width="30" height="30" as="geometry" />
        </mxCell>
        <mxCell id="WKYqmJJfLvBLdVf7iazk-20" value="6" style="ellipse;whiteSpace=wrap;html=1;aspect=fixed;fontFamily=OpenDyslexic;fillColor=#a20025;fontColor=#ffffff;strokeColor=#6F0000;" vertex="1" parent="1">
          <mxGeometry x="490" y="310" width="30" height="30" as="geometry" />
        </mxCell>
        <mxCell id="WKYqmJJfLvBLdVf7iazk-21" value="7" style="ellipse;whiteSpace=wrap;html=1;aspect=fixed;fontFamily=OpenDyslexic;fillColor=#a20025;fontColor=#ffffff;strokeColor=#6F0000;" vertex="1" parent="1">
          <mxGeometry x="240" y="280" width="30" height="30" as="geometry" />
        </mxCell>
        <mxCell id="WKYqmJJfLvBLdVf7iazk-24" value="8" style="ellipse;whiteSpace=wrap;html=1;aspect=fixed;fontFamily=OpenDyslexic;fillColor=#a20025;fontColor=#ffffff;strokeColor=#6F0000;" vertex="1" parent="1">
          <mxGeometry x="130" y="310" width="30" height="30" as="geometry" />
        </mxCell>
        <mxCell id="WKYqmJJfLvBLdVf7iazk-25" value="9" style="ellipse;whiteSpace=wrap;html=1;aspect=fixed;fontFamily=OpenDyslexic;fillColor=#a20025;fontColor=#ffffff;strokeColor=#6F0000;" vertex="1" parent="1">
          <mxGeometry x="300" y="430" width="30" height="30" as="geometry" />
        </mxCell>
        <mxCell id="WKYqmJJfLvBLdVf7iazk-26" value="10" style="ellipse;whiteSpace=wrap;html=1;aspect=fixed;fontFamily=OpenDyslexic;fillColor=#a20025;fontColor=#ffffff;strokeColor=#6F0000;" vertex="1" parent="1">
          <mxGeometry x="100" y="440" width="30" height="30" as="geometry" />
        </mxCell>
      </root>
    </mxGraphModel>
  </diagram>
  <diagram id="zyrphT9804vy5NH5l_m8" name="Page-8">
    <mxGraphModel dx="548" dy="581" grid="1" gridSize="10" guides="1" tooltips="1" connect="1" arrows="1" fold="1" page="1" pageScale="1" pageWidth="850" pageHeight="1100" math="0" shadow="0">
      <root>
        <mxCell id="0" />
        <mxCell id="1" parent="0" />
        <mxCell id="rRv6IJeK1fAHP2vPxtyx-41" style="edgeStyle=orthogonalEdgeStyle;rounded=0;orthogonalLoop=1;jettySize=auto;html=1;entryX=0;entryY=0.5;entryDx=0;entryDy=0;fontFamily=OpenDyslexic;" edge="1" parent="1" source="rRv6IJeK1fAHP2vPxtyx-1" target="rRv6IJeK1fAHP2vPxtyx-4">
          <mxGeometry relative="1" as="geometry" />
        </mxCell>
        <mxCell id="rRv6IJeK1fAHP2vPxtyx-1" value="Start" style="ellipse;whiteSpace=wrap;html=1;aspect=fixed;fontFamily=OpenDyslexic;fontStyle=1" vertex="1" parent="1">
          <mxGeometry x="60" y="160" width="80" height="80" as="geometry" />
        </mxCell>
        <mxCell id="rRv6IJeK1fAHP2vPxtyx-2" value="1" style="ellipse;whiteSpace=wrap;html=1;aspect=fixed;fontFamily=OpenDyslexic;fillColor=#a20025;fontColor=#ffffff;strokeColor=#6F0000;" vertex="1" parent="1">
          <mxGeometry x="120" y="160" width="30" height="30" as="geometry" />
        </mxCell>
        <mxCell id="rRv6IJeK1fAHP2vPxtyx-42" style="edgeStyle=orthogonalEdgeStyle;rounded=0;orthogonalLoop=1;jettySize=auto;html=1;fontFamily=OpenDyslexic;" edge="1" parent="1" source="rRv6IJeK1fAHP2vPxtyx-4" target="rRv6IJeK1fAHP2vPxtyx-7">
          <mxGeometry relative="1" as="geometry" />
        </mxCell>
        <mxCell id="rRv6IJeK1fAHP2vPxtyx-4" value="Create APi request" style="rounded=0;whiteSpace=wrap;html=1;fontFamily=OpenDyslexic;" vertex="1" parent="1">
          <mxGeometry x="210" y="170" width="120" height="60" as="geometry" />
        </mxCell>
        <mxCell id="rRv6IJeK1fAHP2vPxtyx-25" style="edgeStyle=orthogonalEdgeStyle;rounded=0;orthogonalLoop=1;jettySize=auto;html=1;entryX=1;entryY=0.5;entryDx=0;entryDy=0;fontFamily=OpenDyslexic;" edge="1" parent="1" source="rRv6IJeK1fAHP2vPxtyx-6" target="rRv6IJeK1fAHP2vPxtyx-9">
          <mxGeometry relative="1" as="geometry" />
        </mxCell>
        <mxCell id="rRv6IJeK1fAHP2vPxtyx-6" value="Start the LLM model" style="rounded=0;whiteSpace=wrap;html=1;fontFamily=OpenDyslexic;" vertex="1" parent="1">
          <mxGeometry x="380" y="300" width="120" height="60" as="geometry" />
        </mxCell>
        <mxCell id="rRv6IJeK1fAHP2vPxtyx-21" style="edgeStyle=orthogonalEdgeStyle;rounded=0;orthogonalLoop=1;jettySize=auto;html=1;entryX=0.5;entryY=0;entryDx=0;entryDy=0;fontFamily=OpenDyslexic;" edge="1" parent="1" source="rRv6IJeK1fAHP2vPxtyx-7" target="rRv6IJeK1fAHP2vPxtyx-6">
          <mxGeometry relative="1" as="geometry" />
        </mxCell>
        <mxCell id="rRv6IJeK1fAHP2vPxtyx-23" value="Yes" style="edgeLabel;html=1;align=center;verticalAlign=middle;resizable=0;points=[];fontFamily=OpenDyslexic;" vertex="1" connectable="0" parent="rRv6IJeK1fAHP2vPxtyx-21">
          <mxGeometry x="-0.4356" y="-1" relative="1" as="geometry">
            <mxPoint as="offset" />
          </mxGeometry>
        </mxCell>
        <mxCell id="rRv6IJeK1fAHP2vPxtyx-22" style="edgeStyle=orthogonalEdgeStyle;rounded=0;orthogonalLoop=1;jettySize=auto;html=1;entryX=0;entryY=0.5;entryDx=0;entryDy=0;fontFamily=OpenDyslexic;" edge="1" parent="1" source="rRv6IJeK1fAHP2vPxtyx-7" target="rRv6IJeK1fAHP2vPxtyx-17">
          <mxGeometry relative="1" as="geometry" />
        </mxCell>
        <mxCell id="rRv6IJeK1fAHP2vPxtyx-24" value="No" style="edgeLabel;html=1;align=center;verticalAlign=middle;resizable=0;points=[];fontFamily=OpenDyslexic;" vertex="1" connectable="0" parent="rRv6IJeK1fAHP2vPxtyx-22">
          <mxGeometry x="-0.3419" y="1" relative="1" as="geometry">
            <mxPoint as="offset" />
          </mxGeometry>
        </mxCell>
        <mxCell id="rRv6IJeK1fAHP2vPxtyx-7" value="Is server reachable?" style="rhombus;whiteSpace=wrap;html=1;fontFamily=OpenDyslexic;" vertex="1" parent="1">
          <mxGeometry x="400" y="160" width="80" height="80" as="geometry" />
        </mxCell>
        <mxCell id="rRv6IJeK1fAHP2vPxtyx-26" style="edgeStyle=orthogonalEdgeStyle;rounded=0;orthogonalLoop=1;jettySize=auto;html=1;fontFamily=OpenDyslexic;" edge="1" parent="1" source="rRv6IJeK1fAHP2vPxtyx-9" target="rRv6IJeK1fAHP2vPxtyx-18">
          <mxGeometry relative="1" as="geometry" />
        </mxCell>
        <mxCell id="rRv6IJeK1fAHP2vPxtyx-27" value="No" style="edgeLabel;html=1;align=center;verticalAlign=middle;resizable=0;points=[];fontFamily=OpenDyslexic;" vertex="1" connectable="0" parent="rRv6IJeK1fAHP2vPxtyx-26">
          <mxGeometry x="-0.0818" y="1" relative="1" as="geometry">
            <mxPoint as="offset" />
          </mxGeometry>
        </mxCell>
        <mxCell id="rRv6IJeK1fAHP2vPxtyx-28" style="edgeStyle=orthogonalEdgeStyle;rounded=0;orthogonalLoop=1;jettySize=auto;html=1;entryX=0.5;entryY=0;entryDx=0;entryDy=0;fontFamily=OpenDyslexic;" edge="1" parent="1" source="rRv6IJeK1fAHP2vPxtyx-9" target="rRv6IJeK1fAHP2vPxtyx-10">
          <mxGeometry relative="1" as="geometry" />
        </mxCell>
        <mxCell id="rRv6IJeK1fAHP2vPxtyx-29" value="Yes" style="edgeLabel;html=1;align=center;verticalAlign=middle;resizable=0;points=[];fontFamily=OpenDyslexic;" vertex="1" connectable="0" parent="rRv6IJeK1fAHP2vPxtyx-28">
          <mxGeometry x="-0.1943" y="3" relative="1" as="geometry">
            <mxPoint as="offset" />
          </mxGeometry>
        </mxCell>
        <mxCell id="rRv6IJeK1fAHP2vPxtyx-9" value="Was &lt;br&gt;the LLM started?" style="rhombus;whiteSpace=wrap;html=1;fontFamily=OpenDyslexic;" vertex="1" parent="1">
          <mxGeometry x="210" y="285" width="100" height="90" as="geometry" />
        </mxCell>
        <mxCell id="rRv6IJeK1fAHP2vPxtyx-30" style="edgeStyle=orthogonalEdgeStyle;rounded=0;orthogonalLoop=1;jettySize=auto;html=1;entryX=0;entryY=0.5;entryDx=0;entryDy=0;fontFamily=OpenDyslexic;" edge="1" parent="1" source="rRv6IJeK1fAHP2vPxtyx-10" target="rRv6IJeK1fAHP2vPxtyx-11">
          <mxGeometry relative="1" as="geometry" />
        </mxCell>
        <mxCell id="rRv6IJeK1fAHP2vPxtyx-10" value="Geve the LLM model a prompt" style="rounded=0;whiteSpace=wrap;html=1;fontFamily=OpenDyslexic;" vertex="1" parent="1">
          <mxGeometry x="200" y="430" width="120" height="60" as="geometry" />
        </mxCell>
        <mxCell id="rRv6IJeK1fAHP2vPxtyx-31" style="edgeStyle=orthogonalEdgeStyle;rounded=0;orthogonalLoop=1;jettySize=auto;html=1;fontFamily=OpenDyslexic;" edge="1" parent="1" source="rRv6IJeK1fAHP2vPxtyx-11" target="rRv6IJeK1fAHP2vPxtyx-19">
          <mxGeometry relative="1" as="geometry" />
        </mxCell>
        <mxCell id="rRv6IJeK1fAHP2vPxtyx-33" value="No" style="edgeLabel;html=1;align=center;verticalAlign=middle;resizable=0;points=[];fontFamily=OpenDyslexic;" vertex="1" connectable="0" parent="rRv6IJeK1fAHP2vPxtyx-31">
          <mxGeometry x="-0.1356" relative="1" as="geometry">
            <mxPoint as="offset" />
          </mxGeometry>
        </mxCell>
        <mxCell id="rRv6IJeK1fAHP2vPxtyx-32" style="edgeStyle=orthogonalEdgeStyle;rounded=0;orthogonalLoop=1;jettySize=auto;html=1;entryX=0.5;entryY=0;entryDx=0;entryDy=0;fontFamily=OpenDyslexic;" edge="1" parent="1" source="rRv6IJeK1fAHP2vPxtyx-11" target="rRv6IJeK1fAHP2vPxtyx-12">
          <mxGeometry relative="1" as="geometry" />
        </mxCell>
        <mxCell id="rRv6IJeK1fAHP2vPxtyx-34" value="Yes" style="edgeLabel;html=1;align=center;verticalAlign=middle;resizable=0;points=[];fontFamily=OpenDyslexic;" vertex="1" connectable="0" parent="rRv6IJeK1fAHP2vPxtyx-32">
          <mxGeometry x="-0.1848" relative="1" as="geometry">
            <mxPoint as="offset" />
          </mxGeometry>
        </mxCell>
        <mxCell id="rRv6IJeK1fAHP2vPxtyx-11" value="Did the LLM &lt;br&gt;model give out a response?" style="rhombus;whiteSpace=wrap;html=1;fontFamily=OpenDyslexic;" vertex="1" parent="1">
          <mxGeometry x="370" y="410" width="140" height="100" as="geometry" />
        </mxCell>
        <mxCell id="rRv6IJeK1fAHP2vPxtyx-35" style="edgeStyle=orthogonalEdgeStyle;rounded=0;orthogonalLoop=1;jettySize=auto;html=1;entryX=1;entryY=0.5;entryDx=0;entryDy=0;fontFamily=OpenDyslexic;" edge="1" parent="1" source="rRv6IJeK1fAHP2vPxtyx-12" target="rRv6IJeK1fAHP2vPxtyx-13">
          <mxGeometry relative="1" as="geometry" />
        </mxCell>
        <mxCell id="rRv6IJeK1fAHP2vPxtyx-12" value="Parse a JSON to return the request" style="rounded=0;whiteSpace=wrap;html=1;fontFamily=OpenDyslexic;" vertex="1" parent="1">
          <mxGeometry x="380" y="550" width="120" height="60" as="geometry" />
        </mxCell>
        <mxCell id="rRv6IJeK1fAHP2vPxtyx-36" style="edgeStyle=orthogonalEdgeStyle;rounded=0;orthogonalLoop=1;jettySize=auto;html=1;entryX=0.5;entryY=0;entryDx=0;entryDy=0;fontFamily=OpenDyslexic;" edge="1" parent="1" source="rRv6IJeK1fAHP2vPxtyx-13" target="rRv6IJeK1fAHP2vPxtyx-14">
          <mxGeometry relative="1" as="geometry" />
        </mxCell>
        <mxCell id="rRv6IJeK1fAHP2vPxtyx-38" value="Yes" style="edgeLabel;html=1;align=center;verticalAlign=middle;resizable=0;points=[];fontFamily=OpenDyslexic;" vertex="1" connectable="0" parent="rRv6IJeK1fAHP2vPxtyx-36">
          <mxGeometry x="-0.0745" y="2" relative="1" as="geometry">
            <mxPoint as="offset" />
          </mxGeometry>
        </mxCell>
        <mxCell id="rRv6IJeK1fAHP2vPxtyx-37" style="edgeStyle=orthogonalEdgeStyle;rounded=0;orthogonalLoop=1;jettySize=auto;html=1;entryX=1;entryY=0.5;entryDx=0;entryDy=0;fontFamily=OpenDyslexic;" edge="1" parent="1" source="rRv6IJeK1fAHP2vPxtyx-13" target="rRv6IJeK1fAHP2vPxtyx-20">
          <mxGeometry relative="1" as="geometry" />
        </mxCell>
        <mxCell id="rRv6IJeK1fAHP2vPxtyx-40" value="No" style="edgeLabel;html=1;align=center;verticalAlign=middle;resizable=0;points=[];fontFamily=OpenDyslexic;" vertex="1" connectable="0" parent="rRv6IJeK1fAHP2vPxtyx-37">
          <mxGeometry x="-0.1421" y="-1" relative="1" as="geometry">
            <mxPoint as="offset" />
          </mxGeometry>
        </mxCell>
        <mxCell id="rRv6IJeK1fAHP2vPxtyx-13" value="Was the &lt;br&gt;JSON correctly parsed?" style="rhombus;whiteSpace=wrap;html=1;fontFamily=OpenDyslexic;" vertex="1" parent="1">
          <mxGeometry x="230" y="530" width="110" height="100" as="geometry" />
        </mxCell>
        <mxCell id="rRv6IJeK1fAHP2vPxtyx-39" style="edgeStyle=orthogonalEdgeStyle;rounded=0;orthogonalLoop=1;jettySize=auto;html=1;fontFamily=OpenDyslexic;" edge="1" parent="1" source="rRv6IJeK1fAHP2vPxtyx-14" target="rRv6IJeK1fAHP2vPxtyx-15">
          <mxGeometry relative="1" as="geometry" />
        </mxCell>
        <mxCell id="rRv6IJeK1fAHP2vPxtyx-14" value="Return request" style="rounded=0;whiteSpace=wrap;html=1;fontFamily=OpenDyslexic;" vertex="1" parent="1">
          <mxGeometry x="225" y="670" width="120" height="60" as="geometry" />
        </mxCell>
        <mxCell id="rRv6IJeK1fAHP2vPxtyx-15" value="End" style="ellipse;whiteSpace=wrap;html=1;aspect=fixed;fontFamily=OpenDyslexic;fontStyle=1" vertex="1" parent="1">
          <mxGeometry x="245" y="780" width="80" height="80" as="geometry" />
        </mxCell>
        <mxCell id="rRv6IJeK1fAHP2vPxtyx-16" value="15" style="ellipse;whiteSpace=wrap;html=1;aspect=fixed;fontFamily=OpenDyslexic;fillColor=#a20025;fontColor=#ffffff;strokeColor=#6F0000;" vertex="1" parent="1">
          <mxGeometry x="305" y="780" width="30" height="30" as="geometry" />
        </mxCell>
        <mxCell id="rRv6IJeK1fAHP2vPxtyx-71" style="edgeStyle=orthogonalEdgeStyle;rounded=0;orthogonalLoop=1;jettySize=auto;html=1;" edge="1" parent="1" source="rRv6IJeK1fAHP2vPxtyx-17" target="rRv6IJeK1fAHP2vPxtyx-69">
          <mxGeometry relative="1" as="geometry" />
        </mxCell>
        <mxCell id="rRv6IJeK1fAHP2vPxtyx-17" value="Display error." style="shape=parallelogram;perimeter=parallelogramPerimeter;whiteSpace=wrap;html=1;fixedSize=1;fontFamily=OpenDyslexic;" vertex="1" parent="1">
          <mxGeometry x="540" y="170" width="120" height="60" as="geometry" />
        </mxCell>
        <mxCell id="rRv6IJeK1fAHP2vPxtyx-65" style="edgeStyle=orthogonalEdgeStyle;rounded=0;orthogonalLoop=1;jettySize=auto;html=1;entryX=0.5;entryY=0;entryDx=0;entryDy=0;" edge="1" parent="1" source="rRv6IJeK1fAHP2vPxtyx-18" target="rRv6IJeK1fAHP2vPxtyx-63">
          <mxGeometry relative="1" as="geometry" />
        </mxCell>
        <mxCell id="rRv6IJeK1fAHP2vPxtyx-18" value="Display error." style="shape=parallelogram;perimeter=parallelogramPerimeter;whiteSpace=wrap;html=1;fixedSize=1;fontFamily=OpenDyslexic;" vertex="1" parent="1">
          <mxGeometry x="60" y="300" width="120" height="60" as="geometry" />
        </mxCell>
        <mxCell id="rRv6IJeK1fAHP2vPxtyx-68" style="edgeStyle=orthogonalEdgeStyle;rounded=0;orthogonalLoop=1;jettySize=auto;html=1;" edge="1" parent="1" source="rRv6IJeK1fAHP2vPxtyx-19" target="rRv6IJeK1fAHP2vPxtyx-66">
          <mxGeometry relative="1" as="geometry" />
        </mxCell>
        <mxCell id="rRv6IJeK1fAHP2vPxtyx-19" value="Display error." style="shape=parallelogram;perimeter=parallelogramPerimeter;whiteSpace=wrap;html=1;fixedSize=1;fontFamily=OpenDyslexic;" vertex="1" parent="1">
          <mxGeometry x="540" y="430" width="120" height="60" as="geometry" />
        </mxCell>
        <mxCell id="rRv6IJeK1fAHP2vPxtyx-62" style="edgeStyle=orthogonalEdgeStyle;rounded=0;orthogonalLoop=1;jettySize=auto;html=1;entryX=0.5;entryY=0;entryDx=0;entryDy=0;" edge="1" parent="1" source="rRv6IJeK1fAHP2vPxtyx-20" target="rRv6IJeK1fAHP2vPxtyx-60">
          <mxGeometry relative="1" as="geometry" />
        </mxCell>
        <mxCell id="rRv6IJeK1fAHP2vPxtyx-20" value="Display error." style="shape=parallelogram;perimeter=parallelogramPerimeter;whiteSpace=wrap;html=1;fixedSize=1;fontFamily=OpenDyslexic;" vertex="1" parent="1">
          <mxGeometry x="60" y="550" width="120" height="60" as="geometry" />
        </mxCell>
        <mxCell id="rRv6IJeK1fAHP2vPxtyx-47" value="2" style="ellipse;whiteSpace=wrap;html=1;aspect=fixed;fontFamily=OpenDyslexic;fillColor=#a20025;fontColor=#ffffff;strokeColor=#6F0000;" vertex="1" parent="1">
          <mxGeometry x="315" y="160" width="30" height="30" as="geometry" />
        </mxCell>
        <mxCell id="rRv6IJeK1fAHP2vPxtyx-48" value="3" style="ellipse;whiteSpace=wrap;html=1;aspect=fixed;fontFamily=OpenDyslexic;fillColor=#a20025;fontColor=#ffffff;strokeColor=#6F0000;" vertex="1" parent="1">
          <mxGeometry x="425" y="140" width="30" height="30" as="geometry" />
        </mxCell>
        <mxCell id="rRv6IJeK1fAHP2vPxtyx-49" value="4" style="ellipse;whiteSpace=wrap;html=1;aspect=fixed;fontFamily=OpenDyslexic;fillColor=#a20025;fontColor=#ffffff;strokeColor=#6F0000;" vertex="1" parent="1">
          <mxGeometry x="650" y="150" width="30" height="30" as="geometry" />
        </mxCell>
        <mxCell id="rRv6IJeK1fAHP2vPxtyx-50" value="5" style="ellipse;whiteSpace=wrap;html=1;aspect=fixed;fontFamily=OpenDyslexic;fillColor=#a20025;fontColor=#ffffff;strokeColor=#6F0000;" vertex="1" parent="1">
          <mxGeometry x="490" y="285" width="30" height="30" as="geometry" />
        </mxCell>
        <mxCell id="rRv6IJeK1fAHP2vPxtyx-51" value="6" style="ellipse;whiteSpace=wrap;html=1;aspect=fixed;fontFamily=OpenDyslexic;fillColor=#a20025;fontColor=#ffffff;strokeColor=#6F0000;" vertex="1" parent="1">
          <mxGeometry x="245" y="270" width="30" height="30" as="geometry" />
        </mxCell>
        <mxCell id="rRv6IJeK1fAHP2vPxtyx-52" value="7" style="ellipse;whiteSpace=wrap;html=1;aspect=fixed;fontFamily=OpenDyslexic;fillColor=#a20025;fontColor=#ffffff;strokeColor=#6F0000;" vertex="1" parent="1">
          <mxGeometry x="160" y="285" width="30" height="30" as="geometry" />
        </mxCell>
        <mxCell id="rRv6IJeK1fAHP2vPxtyx-53" value="8" style="ellipse;whiteSpace=wrap;html=1;aspect=fixed;fontFamily=OpenDyslexic;fillColor=#a20025;fontColor=#ffffff;strokeColor=#6F0000;" vertex="1" parent="1">
          <mxGeometry x="300" y="410" width="30" height="30" as="geometry" />
        </mxCell>
        <mxCell id="rRv6IJeK1fAHP2vPxtyx-54" value="9" style="ellipse;whiteSpace=wrap;html=1;aspect=fixed;fontFamily=OpenDyslexic;fillColor=#a20025;fontColor=#ffffff;strokeColor=#6F0000;" vertex="1" parent="1">
          <mxGeometry x="420" y="390" width="30" height="30" as="geometry" />
        </mxCell>
        <mxCell id="rRv6IJeK1fAHP2vPxtyx-55" value="10" style="ellipse;whiteSpace=wrap;html=1;aspect=fixed;fontFamily=OpenDyslexic;fillColor=#a20025;fontColor=#ffffff;strokeColor=#6F0000;" vertex="1" parent="1">
          <mxGeometry x="640" y="410" width="30" height="30" as="geometry" />
        </mxCell>
        <mxCell id="rRv6IJeK1fAHP2vPxtyx-56" value="11" style="ellipse;whiteSpace=wrap;html=1;aspect=fixed;fontFamily=OpenDyslexic;fillColor=#a20025;fontColor=#ffffff;strokeColor=#6F0000;" vertex="1" parent="1">
          <mxGeometry x="490" y="530" width="30" height="30" as="geometry" />
        </mxCell>
        <mxCell id="rRv6IJeK1fAHP2vPxtyx-57" value="12" style="ellipse;whiteSpace=wrap;html=1;aspect=fixed;fontFamily=OpenDyslexic;fillColor=#a20025;fontColor=#ffffff;strokeColor=#6F0000;" vertex="1" parent="1">
          <mxGeometry x="270" y="510" width="30" height="30" as="geometry" />
        </mxCell>
        <mxCell id="rRv6IJeK1fAHP2vPxtyx-58" value="13" style="ellipse;whiteSpace=wrap;html=1;aspect=fixed;fontFamily=OpenDyslexic;fillColor=#a20025;fontColor=#ffffff;strokeColor=#6F0000;" vertex="1" parent="1">
          <mxGeometry x="170" y="530" width="30" height="30" as="geometry" />
        </mxCell>
        <mxCell id="rRv6IJeK1fAHP2vPxtyx-59" value="14" style="ellipse;whiteSpace=wrap;html=1;aspect=fixed;fontFamily=OpenDyslexic;fillColor=#a20025;fontColor=#ffffff;strokeColor=#6F0000;" vertex="1" parent="1">
          <mxGeometry x="330" y="650" width="30" height="30" as="geometry" />
        </mxCell>
        <mxCell id="rRv6IJeK1fAHP2vPxtyx-60" value="End" style="ellipse;whiteSpace=wrap;html=1;aspect=fixed;fontFamily=OpenDyslexic;fontStyle=1" vertex="1" parent="1">
          <mxGeometry x="80" y="640" width="80" height="80" as="geometry" />
        </mxCell>
        <mxCell id="rRv6IJeK1fAHP2vPxtyx-61" value="15" style="ellipse;whiteSpace=wrap;html=1;aspect=fixed;fontFamily=OpenDyslexic;fillColor=#a20025;fontColor=#ffffff;strokeColor=#6F0000;" vertex="1" parent="1">
          <mxGeometry x="140" y="640" width="30" height="30" as="geometry" />
        </mxCell>
        <mxCell id="rRv6IJeK1fAHP2vPxtyx-63" value="End" style="ellipse;whiteSpace=wrap;html=1;aspect=fixed;fontFamily=OpenDyslexic;fontStyle=1" vertex="1" parent="1">
          <mxGeometry x="80" y="390" width="80" height="80" as="geometry" />
        </mxCell>
        <mxCell id="rRv6IJeK1fAHP2vPxtyx-64" value="15" style="ellipse;whiteSpace=wrap;html=1;aspect=fixed;fontFamily=OpenDyslexic;fillColor=#a20025;fontColor=#ffffff;strokeColor=#6F0000;" vertex="1" parent="1">
          <mxGeometry x="140" y="390" width="30" height="30" as="geometry" />
        </mxCell>
        <mxCell id="rRv6IJeK1fAHP2vPxtyx-66" value="End" style="ellipse;whiteSpace=wrap;html=1;aspect=fixed;fontFamily=OpenDyslexic;fontStyle=1" vertex="1" parent="1">
          <mxGeometry x="560" y="520" width="80" height="80" as="geometry" />
        </mxCell>
        <mxCell id="rRv6IJeK1fAHP2vPxtyx-67" value="15" style="ellipse;whiteSpace=wrap;html=1;aspect=fixed;fontFamily=OpenDyslexic;fillColor=#a20025;fontColor=#ffffff;strokeColor=#6F0000;" vertex="1" parent="1">
          <mxGeometry x="620" y="520" width="30" height="30" as="geometry" />
        </mxCell>
        <mxCell id="rRv6IJeK1fAHP2vPxtyx-69" value="End" style="ellipse;whiteSpace=wrap;html=1;aspect=fixed;fontFamily=OpenDyslexic;fontStyle=1" vertex="1" parent="1">
          <mxGeometry x="560" y="260" width="80" height="80" as="geometry" />
        </mxCell>
        <mxCell id="rRv6IJeK1fAHP2vPxtyx-70" value="15" style="ellipse;whiteSpace=wrap;html=1;aspect=fixed;fontFamily=OpenDyslexic;fillColor=#a20025;fontColor=#ffffff;strokeColor=#6F0000;" vertex="1" parent="1">
          <mxGeometry x="620" y="260" width="30" height="30" as="geometry" />
        </mxCell>
      </root>
    </mxGraphModel>
  </diagram>
</mxfile>
